<?xml version="1.0" encoding="utf-8"?>
<!-- Generator: Adobe Illustrator 27.5.0, SVG Export Plug-In . SVG Version: 6.00 Build 0)  -->
<svg version="1.1" xmlns="http://www.w3.org/2000/svg" xmlns:xlink="http://www.w3.org/1999/xlink" x="0px" y="0px"
	 viewBox="0 0 500 500" style="enable-background:new 0 0 500 500;" xml:space="preserve">
<g id="Background_Complete">
	<g>
		<g>
			<rect y="382.398" style="fill:#EBEBEB;" width="500" height="0.25"/>
			<path style="fill:#EBEBEB;" d="M237.014,337.8H43.915c-3.147,0-5.708-2.561-5.708-5.708V60.66c0-3.147,2.561-5.708,5.708-5.708
				h193.099c3.146,0,5.707,2.561,5.707,5.708v271.432C242.721,335.239,240.16,337.8,237.014,337.8z M43.915,55.203
				c-3.01,0-5.458,2.448-5.458,5.458v271.432c0,3.01,2.448,5.458,5.458,5.458h193.099c3.009,0,5.457-2.448,5.457-5.458V60.66
				c0-3.009-2.448-5.458-5.457-5.458H43.915z"/>
			<path style="fill:#EBEBEB;" d="M453.31,337.8H260.212c-3.147,0-5.707-2.561-5.707-5.708V60.66c0-3.147,2.561-5.708,5.707-5.708
				H453.31c3.148,0,5.708,2.561,5.708,5.708v271.432C459.019,335.239,456.458,337.8,453.31,337.8z M260.212,55.203
				c-3.009,0-5.457,2.448-5.457,5.458v271.432c0,3.01,2.448,5.458,5.457,5.458H453.31c3.01,0,5.458-2.448,5.458-5.458V60.66
				c0-3.009-2.448-5.458-5.458-5.458H260.212z"/>
		</g>
		<g>
			<rect x="174.438" y="391.922" style="fill:#EBEBEB;" width="25.997" height="0.25"/>
			<rect x="52.459" y="389.208" style="fill:#EBEBEB;" width="54.101" height="0.25"/>
			<rect x="147.119" y="401.208" style="fill:#EBEBEB;" width="26.317" height="0.25"/>
			<rect x="258.227" y="399.528" style="fill:#EBEBEB;" width="38.832" height="0.25"/>
			<rect x="305.962" y="399.528" style="fill:#EBEBEB;" width="10.694" height="0.25"/>
			<rect x="395.346" y="395.306" style="fill:#EBEBEB;" width="54.556" height="0.25"/>
		</g>
	</g>
	<g>
		<g>
			<g>
				<g>
					<rect x="65.981" y="81.061" style="fill:#E6E6E6;" width="89.609" height="193.789"/>
					<rect x="69.41" y="81.061" style="fill:#F5F5F5;" width="89.609" height="193.789"/>
					
						<rect x="23.066" y="139.306" transform="matrix(-1.836970e-16 1 -1 -1.836970e-16 292.1701 63.7415)" style="fill:#FFFFFF;" width="182.296" height="77.3"/>
					
						<rect x="60.42" y="176.66" transform="matrix(-1.836970e-16 1 -1 -1.836970e-16 329.5243 26.3874)" style="fill:#E6E6E6;" width="182.296" height="2.592"/>
					<rect x="71.955" y="245.488" style="fill:#F5F5F5;" width="84.518" height="7.715"/>
					<rect x="71.955" y="225.15" style="fill:#F5F5F5;" width="84.518" height="7.715"/>
				</g>
			</g>
		</g>
		<g>
			<g>
				<g>
					<rect x="189.253" y="81.061" style="fill:#E6E6E6;" width="89.609" height="193.789"/>
					<rect x="192.682" y="81.061" style="fill:#F5F5F5;" width="89.609" height="193.789"/>
					
						<rect x="146.338" y="139.306" transform="matrix(-1.836970e-16 1 -1 -1.836970e-16 415.4421 -59.5305)" style="fill:#FFFFFF;" width="182.296" height="77.3"/>
					
						<rect x="183.693" y="176.66" transform="matrix(-1.836970e-16 1 -1 -1.836970e-16 452.7963 -96.8847)" style="fill:#E6E6E6;" width="182.296" height="2.592"/>
					<rect x="195.227" y="245.488" style="fill:#F5F5F5;" width="84.518" height="7.715"/>
					<rect x="195.227" y="225.15" style="fill:#F5F5F5;" width="84.518" height="7.715"/>
				</g>
			</g>
		</g>
		<g>
			<path style="fill:#F5F5F5;" d="M346.411,219.741c13.286,3.451,27.745,14.486,31.854,25.413c1.155-9.584,2.709-19.122,4.66-28.591
				c-0.957,1.166-2.115,2.303-3.504,3.406c-18.526,15.747-29.155-19.713-21.764-46.532c12.749,5.081,25.718,17.868,28.428,29.247
				c2.342-9.392,5.08-18.701,8.213-27.902c-1.094,1.044-2.391,2.034-3.908,2.963c-20.368,13.4-26.484-23.226-15.685-49.132
				c12.011,6.645,23.246,21.021,24.488,32.713c3.268-8.441,6.877-16.778,10.824-24.988c-13.956-0.26-8.171-26.766,4.395-41.419
				c9.743,13.207,15.798,37.248-0.094,40.936c-1.525,3.12-3,6.257-4.426,9.413c9.295-7.519,27.398-7.002,39.814-1.258
				c-11.199,18.17-35.753,40.6-44.297,19.065c-0.592-1.652-0.951-3.228-1.106-4.727c-3.606,8.952-6.823,18.028-9.65,27.203
				c8.254-8.537,26.247-10.222,39.284-6.077c-8.741,19.216-30.277,44.371-41.468,24.174c-0.795-1.556-1.354-3.067-1.693-4.526
				c-2.443,9.267-4.494,18.62-6.148,28.034c7.119-9.451,24.748-13.317,38.202-10.827c-6.248,20.021-24.493,47.602-38.111,28.991
				c-0.991-1.442-1.722-2.868-2.244-4.269c-1.269,9.468-2.142,18.984-2.617,28.523c5.891-10.253,22.903-16.258,36.562-15.456
				c-3.705,20.581-18.404,50.265-34.219,33.467c-0.012-0.013-0.023-0.026-0.035-0.039c-1.592-1.811-4.397-1.821-5.902,0.063
				l-0.49,0.613c-0.043-9.66,0.319-19.315,1.08-28.936c-0.806,1.273-1.813,2.543-3.055,3.809
				C357.367,281.005,342.435,247.141,346.411,219.741z"/>
			<path style="fill:#EBEBEB;" d="M396.846,241.711c-8.761,2.786-18.114,10.779-20.578,18.36
				c-1.007-6.494-2.279-12.945-3.813-19.334c0.666,0.763,1.465,1.5,2.418,2.207c12.727,10.128,18.922-14.387,13.335-32.425
				c-8.362,3.879-16.68,13.018-18.202,20.861c-1.793-6.325-3.847-12.581-6.161-18.749c0.754,0.676,1.642,1.308,2.676,1.892
				c13.895,8.468,17.057-16.695,9.223-33.999c-7.832,4.921-14.956,15.086-15.492,23.095c-2.386-5.647-4.996-11.211-7.828-16.678
				c9.286-0.633,4.775-18.51-3.955-28.086c-6.159,9.319-9.594,25.902,1.079,27.898c1.093,2.076,2.153,4.167,3.181,6.271
				c-6.376-4.821-18.417-3.878-26.541,0.442c7.908,12.018,24.814,26.504,29.968,11.548c0.353-1.145,0.553-2.231,0.619-3.258
				c2.624,5.984,4.991,12.064,7.101,18.226c-5.708-5.549-17.73-6.11-26.308-2.86c6.298,12.812,21.261,29.254,28.211,15.122
				c0.49-1.087,0.825-2.135,1.015-3.14c1.857,6.236,3.454,12.544,4.79,18.906c-4.975-6.209-16.809-8.269-25.705-6.133
				c4.658,13.441,17.491,31.644,26.095,18.515c0.624-1.015,1.075-2.011,1.388-2.983c1.08,6.412,1.898,12.869,2.451,19.355
				c-4.177-6.796-15.653-10.333-24.728-9.341c2.978,13.906,13.503,33.658,23.616,21.693c0.007-0.009,0.015-0.019,0.022-0.028
				c1.015-1.286,2.882-1.385,3.931-0.15l0.341,0.402c-0.212-6.586-0.692-13.154-1.438-19.687c0.568,0.841,1.271,1.674,2.129,2.496
				C391.074,283.824,400.175,260.256,396.846,241.711z"/>
			<g>
				<g>
					<path style="fill:#F0F0F0;" d="M419.298,274.281c0,0-0.935,108.119-36.768,108.119c-35.833,0-36.768-108.119-36.768-108.119
						H419.298z"/>
				</g>
			</g>
		</g>
		<g>
			<g>
				
					<rect x="97.638" y="288.889" transform="matrix(-1 -1.224647e-16 1.224647e-16 -1 389.2302 643.7669)" style="fill:#F5F5F5;" width="193.953" height="65.989"/>
				
					<rect x="166.955" y="230.241" transform="matrix(-1.836970e-16 1 -1 -1.836970e-16 516.4984 127.2684)" style="fill:#EBEBEB;" width="55.32" height="183.285"/>
				
					<rect x="136.257" y="260.939" transform="matrix(-1.836970e-16 1 -1 -1.836970e-16 485.8005 157.9663)" style="fill:#E6E6E6;" width="55.32" height="121.889"/>
				
					<rect x="155.915" y="280.598" transform="matrix(-1.836970e-16 1 -1 -1.836970e-16 505.459 138.3078)" style="fill:#E0E0E0;" width="55.32" height="82.572"/>
				
					<rect x="269.831" y="321.044" transform="matrix(-1.836970e-16 1 -1 -1.836970e-16 601.0005 42.7663)" style="fill:#E0E0E0;" width="18.572" height="1.679"/>
				
					<rect x="192.442" y="204.754" transform="matrix(-1.836970e-16 1 -1 -1.836970e-16 491.0115 101.7816)" style="fill:#E0E0E0;" width="4.347" height="183.285"/>
				<rect x="70.769" y="288.889" style="fill:#E6E6E6;" width="26.87" height="65.989"/>
			</g>
			<polygon style="fill:#F5F5F5;" points="100.243,382.398 97.638,382.398 97.638,354.878 102.133,354.878 			"/>
			<polygon style="fill:#F5F5F5;" points="288.987,382.398 291.592,382.398 291.592,354.878 287.097,354.878 			"/>
			<polygon style="fill:#E6E6E6;" points="73.373,382.398 70.769,382.398 70.769,354.878 75.263,354.878 			"/>
			<polygon style="fill:#E6E6E6;" points="262.117,382.398 264.722,382.398 264.722,354.878 260.227,354.878 			"/>
		</g>
	</g>
</g>
<g id="Background_Simple" style="display:none;">
	<g style="display:inline;">
		<path style="fill:#407BFF;" d="M181.431,292.792c30.407,1.505,68.845,31.848,96.06-3.922
			c22.822-29.996,11.539-60.437,45.896-82.043c25.036-15.745,66.175-43.44,41.078-74.289c-19.629-24.127-57.252-31.852-88.81-27.464
			c-24.787,3.447-78.354,19.375-91.513,50.144c-14.787,34.578,22.187,64.698-27.495,76.317c-29.9,6.993-68.426,26.103-58.235,68.348
			c4.023,16.674,15.836,14.171,29.159,8.074C147.236,298.961,160.514,291.757,181.431,292.792z"/>
		<path style="opacity:0.9;fill:#FFFFFF;" d="M181.431,292.792c30.407,1.505,68.845,31.848,96.06-3.922
			c22.822-29.996,11.539-60.437,45.896-82.043c25.036-15.745,66.175-43.44,41.078-74.289c-19.629-24.127-57.252-31.852-88.81-27.464
			c-24.787,3.447-78.354,19.375-91.513,50.144c-14.787,34.578,22.187,64.698-27.495,76.317c-29.9,6.993-68.426,26.103-58.235,68.348
			c4.023,16.674,15.836,14.171,29.159,8.074C147.236,298.961,160.514,291.757,181.431,292.792z"/>
	</g>
</g>
<g id="Shadow_1_">
	<ellipse id="_x3C_Path_x3E__207_" style="fill:#F5F5F5;" cx="250" cy="416.238" rx="193.889" ry="11.323"/>
</g>
<g id="Speech_Bubble">
	<g>
		<g>
			<path style="fill:#FFFFFF;" d="M273.453,132.599c12.335-6.85,21.086-19.582,22.182-34.705
				c1.727-23.828-16.189-44.546-40.018-46.273c-23.828-1.727-44.546,16.189-46.273,40.018c-1.41,19.449,10.27,36.821,27.567,43.49
				c-4.735,7.963-12.263,11.113-12.263,11.113s14.266-1.884,19.41-9.055c1.732,0.342,3.499,0.595,5.304,0.726
				c6.233,0.452,12.249-0.452,17.773-2.442c4.331,7.162,15.871,11.608,15.871,11.608S276.028,141.96,273.453,132.599z"/>
			<path style="opacity:0.3;fill:#407BFF;" d="M273.453,132.599c12.335-6.85,21.086-19.582,22.182-34.705
				c1.727-23.828-16.189-44.546-40.018-46.273c-23.828-1.727-44.546,16.189-46.273,40.018c-1.41,19.449,10.27,36.821,27.567,43.49
				c-4.735,7.963-12.263,11.113-12.263,11.113s14.266-1.884,19.41-9.055c1.732,0.342,3.499,0.595,5.304,0.726
				c6.233,0.452,12.249-0.452,17.773-2.442c4.331,7.162,15.871,11.608,15.871,11.608S276.028,141.96,273.453,132.599z"/>
		</g>
		<g>
			<path style="fill:#263238;" d="M297.998,116.112l-9.115,0.741c0.591,1.364,0.905,2.896,0.82,4.519
				c-0.265,5.024-4.382,9.197-9.402,9.519c-5.462,0.351-10.22-3.745-10.665-9.222c-0.092-1.131,0.013-2.234,0.286-3.275
				l-15.408,1.253l-1.253-15.408c2.232,0.563,4.76,0.452,7.211-0.943c3.497-1.991,5.668-5.838,5.251-9.841
				c-0.564-5.418-5.361-9.422-10.818-8.978c-1.131,0.092-2.202,0.374-3.186,0.801l-1.252-15.397l15.408-1.253
				c-0.592-1.33-0.9-2.823-0.836-4.404c0.199-4.981,4.195-9.175,9.16-9.615c5.564-0.493,10.461,3.644,10.913,9.203
				c0.092,1.131-0.014,2.234-0.276,3.274l9.115-0.741c3.469-0.282,6.51,2.302,6.792,5.771l3.025,37.202
				C304.051,112.789,301.467,115.83,297.998,116.112z"/>
			<path style="fill:#407BFF;" d="M256.077,84.454c-1.571-0.059-3.037,0.257-4.358,0.83l-1.252-15.401l-15.386,1.251
				c0.462,1.065,0.742,2.234,0.809,3.469c0.281,5.149-3.548,9.792-8.656,10.495c-5.768,0.794-10.946-3.422-11.411-9.146
				c-0.092-1.131,0.003-2.233,0.265-3.273l-9.105,0.74c-3.469,0.282-6.053,3.323-5.771,6.793l3.026,37.202
				c0.282,3.469,3.323,6.053,6.792,5.771l9.119-0.742c-0.466,1.849-0.446,3.876,0.314,5.943c1.345,3.66,4.775,6.276,8.665,6.547
				c6.308,0.439,11.279-4.796,10.787-10.846c-0.092-1.132-0.376-2.2-0.805-3.186l15.404-1.253l-1.253-15.404
				c1.042,0.263,2.142,0.371,3.274,0.279c5.537-0.45,9.66-5.305,9.207-10.842C265.332,88.676,261.096,84.642,256.077,84.454z"/>
		</g>
		<path style="fill:#263238;" d="M236.788,53.478c-0.975-0.927-1.931-1.727-2.842-2.377l0.74-1.037
			c0.96,0.685,1.963,1.523,2.981,2.491L236.788,53.478z"/>
		<path style="fill:#407BFF;" d="M244.496,64.065c-0.713-1.921-2.321-4.482-4.41-7.028l0.984-0.809
			c2.176,2.65,3.86,5.344,4.621,7.393L244.496,64.065z"/>
		<path style="fill:#263238;" d="M252.989,61.402l-1.275-0.029c0.122-5.334,1.845-10.022,5.12-13.932l0.976,0.818
			C254.726,51.942,253.104,56.364,252.989,61.402z"/>
		<path style="fill:#407BFF;" d="M246.931,55.459c-0.013-0.063-1.348-6.332-3.851-10.066l1.059-0.71
			c2.643,3.942,3.984,10.249,4.04,10.515L246.931,55.459z"/>
		<path style="fill:#263238;" d="M264.628,136.866c-0.882-0.784-1.79-1.724-2.698-2.794l0.971-0.825
			c0.871,1.024,1.737,1.921,2.575,2.666L264.628,136.866z"/>
		<path style="fill:#407BFF;" d="M260.145,132.091c-2.337-3.093-3.979-6.767-4.514-8.871l1.236-0.314
			c0.504,1.984,2.064,5.464,4.295,8.417L260.145,132.091z"/>
		<path style="fill:#407BFF;" d="M251.635,131.087c-0.893-4.033,0.872-7.62,0.948-7.771l1.14,0.57
			c-0.017,0.033-1.636,3.346-0.844,6.925L251.635,131.087z"/>
	</g>
</g>
<g id="Character_1">
	<g>
		<path style="fill:#263238;" d="M183.081,324.206c-6.432-35.89-9.107-79.16-9.107-79.16l34.266-0.54c0,0-2.933,58.321-4.348,82.749
			c-1.469,25.399-2.503,74.275-2.503,74.275h-11.82C189.57,401.53,179.514,355.608,183.081,324.206z"/>
		<path style="opacity:0.2;" d="M190.032,254.824c0,0-4.657,34.831-8.471,60.375c-3.392-21.467-5.545-44.023-6.661-57.59
			L190.032,254.824z"/>
		<path style="fill:#263238;" d="M217.268,413.529c0,0-15.872-3.724-16.569-9.142l-10.123,1.318l-1.103,10.534h4.181l0.661-1.307
			l1.403,1.307c14.198,0,19.459-0.15,22.091-1.027C217.965,413.968,217.268,413.529,217.268,413.529z"/>
		<g>
			<path style="fill:#407BFF;" d="M189.141,407.608c3.796,0.22,11.388-0.333,12.866-1.064c1.478-0.73,0.605-6.625,0.605-6.625
				s-13.269-1.318-14.445-0.586C186.991,400.066,189.141,407.608,189.141,407.608z"/>
			<path style="opacity:0.3;fill:#FFFFFF;" d="M189.141,407.608c3.796,0.22,11.388-0.333,12.866-1.064
				c1.478-0.73,0.605-6.625,0.605-6.625s-13.269-1.318-14.445-0.586C186.991,400.066,189.141,407.608,189.141,407.608z"/>
		</g>
		<path style="fill:#263238;" d="M151.261,323.195c5.846-36.09,5.657-60.208,11.506-77.996l33.453-0.458
			c0,0-16.176,57.258-23.558,81.099c-7.411,23.934-20.786,75.69-20.786,75.69H141.04C141.04,401.53,141.479,351.114,151.261,323.195
			z"/>
		<path style="fill:#263238;" d="M163.283,413.529c0,0-11.972-3.724-12.669-9.142l-10.123,1.318l-1.103,10.534h2.616l0.661-1.307
			l1.403,1.307c14.197,0,17.124-0.15,19.756-1.027C163.98,413.968,163.283,413.529,163.283,413.529z"/>
		<g>
			<path style="fill:#407BFF;" d="M139.388,407.352c2.335,0.476,11.159-0.077,12.746-0.807c1.587-0.73,1.086-6.918,1.086-6.918
				s-12.006-1.428-13.29-0.696C138.645,399.663,139.388,407.352,139.388,407.352z"/>
			<path style="opacity:0.3;fill:#FFFFFF;" d="M139.388,407.352c2.335,0.476,11.159-0.077,12.746-0.807
				c1.587-0.73,1.086-6.918,1.086-6.918s-12.006-1.428-13.29-0.696C138.645,399.663,139.388,407.352,139.388,407.352z"/>
		</g>
		<path style="fill:#407BFF;" d="M228.897,243.805"/>
		<g>
			<path style="fill:#CF7A64;" d="M208.062,181.518l2.872,2.47l2.955,2.504c1.97,1.662,3.971,3.272,5.953,4.825
				c0.993,0.775,1.993,1.522,2.99,2.23c0.987,0.726,1.977,1.415,2.949,2.035c0.967,0.627,1.939,1.18,2.815,1.656
				c0.864,0.464,1.696,0.805,2.12,0.953l-1.365-0.102c-0.189,0.094,0.289,0.098,0.895-0.043c0.618-0.134,1.4-0.421,2.203-0.778
				c1.613-0.72,3.397-1.665,5.145-2.734c1.774-1.048,3.554-2.209,5.348-3.393l5.381-3.601l0.122-0.082
				c1.829-1.224,4.303-0.734,5.527,1.095c0.912,1.362,0.869,3.086,0.034,4.381c-1.332,2.058-2.722,3.873-4.229,5.71
				c-1.506,1.817-3.112,3.566-4.853,5.266c-1.769,1.672-3.62,3.335-5.874,4.842c-1.129,0.756-2.336,1.494-3.8,2.164
				c-1.47,0.658-3.17,1.282-5.594,1.45c-0.306,0.021-0.607,0.009-0.899-0.032l-0.466-0.07c-2.25-0.334-3.988-0.924-5.61-1.538
				c-1.607-0.617-3.036-1.337-4.423-2.059c-2.764-1.447-5.253-3.031-7.647-4.691c-2.406-1.641-4.667-3.394-6.883-5.183
				c-1.097-0.907-2.194-1.81-3.255-2.757c-1.086-0.951-2.081-1.871-3.199-2.951c-3.142-3.034-3.23-8.04-0.197-11.182
				c2.922-3.027,7.675-3.22,10.829-0.519L208.062,181.518z"/>
			<path style="fill:#CE7A63;" d="M249.79,194.753l8.861-0.075l-3.064-10.177c0,0-8.015,1.042-8.15,5.39L249.79,194.753z"/>
			<path style="fill:#CE7A63;" d="M265.155,188.165l-1.675-3.385c-0.667-1.348-2.212-2.014-3.65-1.575l-4.243,1.297l3.064,10.177
				l5.056-2.371C265.266,191.576,265.919,189.707,265.155,188.165z"/>
			<path style="fill:#263238;" d="M199.944,176.081c-6.66,4.863-8.454,14.171-4.34,21.318c0.608,1.057,1.287,1.987,2.048,2.711
				c3.508,3.335,12.209,6.273,17.917,8.749c7.267-2.589,10.969-10.29,9.894-14.558c-5.531-7.326-15.629-18.07-20.876-19.493
				C202.988,174.374,201.465,174.97,199.944,176.081z"/>
		</g>
		<path style="fill:#407BFF;" d="M167.922,173.191c8.993-1.109,21.114-1.214,30.811-0.2c8.722,0.912,15.352,8.322,15.325,17.092
			c-0.049,15.759-2.575,33.17-5.202,57.373c-7.451,7.715-47.479-0.308-47.479-0.308c0.133-6.468,1.392-16.472,3.247-26.137
			c-1.364-9.978-4.822-21.404-6.776-34.655C156.9,179.925,161.471,173.987,167.922,173.191z"/>
		<g>
			<defs>
				<path id="SVGID_1_" d="M167.922,173.191c8.993-1.109,21.114-1.214,30.811-0.2c8.722,0.912,15.352,8.322,15.325,17.092
					c-0.049,15.759-2.575,33.17-5.202,57.373c-7.451,7.715-47.479-0.308-47.479-0.308c0.133-6.468,1.392-16.472,3.247-26.137
					c-1.364-9.978-4.822-21.404-6.776-34.655C156.9,179.925,161.471,173.987,167.922,173.191z"/>
			</defs>
			<clipPath id="SVGID_00000036246395420286897660000017669013354571318656_">
				<use xlink:href="#SVGID_1_"  style="overflow:visible;"/>
			</clipPath>
			<g style="opacity:0.2;clip-path:url(#SVGID_00000036246395420286897660000017669013354571318656_);">
				<path style="fill:#FFFFFF;" d="M166.222,189.949c-0.141,0-0.257-0.11-0.264-0.251c-0.007-0.145,0.106-0.27,0.251-0.276
					c1.968-0.096,3.892-0.895,5.416-2.162c-0.28-0.133-0.546-0.32-0.76-0.583c-0.281-0.346-0.42-0.762-0.519-1.123
					c-0.584-2.156-0.057-4.956,2.078-6.139c0.727-0.402,1.77-0.525,2.345,0.154c0.241,0.287,0.33,0.647,0.381,0.929
					c0.276,1.559-0.22,3.035-0.685,3.999c-0.448,0.93-1.062,1.778-1.792,2.514c0.063,0.008,0.122,0.014,0.18,0.019
					c1.486,0.122,3.09-0.553,4.186-1.758c1.008-1.107,1.633-2.648,1.758-4.339c0.011-0.145,0.126-0.258,0.283-0.244
					c0.145,0.011,0.255,0.137,0.244,0.283c-0.135,1.809-0.808,3.462-1.895,4.655c-1.223,1.343-2.938,2.065-4.62,1.929
					c-0.188-0.015-0.396-0.044-0.611-0.097c-1.647,1.456-3.781,2.382-5.965,2.488C166.23,189.948,166.226,189.949,166.222,189.949z
					 M173.631,179.614c-0.314,0-0.659,0.102-0.95,0.263c-1.877,1.04-2.341,3.629-1.824,5.538c0.084,0.307,0.199,0.658,0.419,0.928
					c0.21,0.258,0.494,0.422,0.79,0.527c0.793-0.746,1.454-1.627,1.924-2.603c0.432-0.894,0.893-2.258,0.642-3.677
					c-0.039-0.216-0.105-0.49-0.266-0.681C174.19,179.702,173.923,179.614,173.631,179.614z"/>
				<path style="fill:#FFFFFF;" d="M188.621,199.892c-0.03,0-0.061-0.005-0.093-0.017c-1.699-0.635-3.099-1.742-3.941-3.119
					c-0.948-1.55-1.159-3.409-0.563-4.975c0.067-0.176,0.153-0.369,0.264-0.56c-0.938-1.989-1.232-4.296-0.725-6.422
					c0.034-0.142,0.179-0.23,0.318-0.195c0.142,0.034,0.229,0.176,0.195,0.318c-0.457,1.915-0.227,3.986,0.564,5.804
					c0.205-0.232,0.459-0.435,0.771-0.566c0.415-0.176,0.871-0.191,1.223-0.185c2.232,0.041,4.775,1.328,5.315,3.709
					c0.184,0.81,0.011,1.846-0.803,2.208c-0.343,0.153-0.714,0.137-0.999,0.107c-1.573-0.169-2.852-1.058-3.648-1.774
					c-0.768-0.69-1.411-1.515-1.915-2.422c-0.025,0.057-0.047,0.113-0.067,0.167c-0.53,1.392-0.331,3.121,0.521,4.511
					c0.78,1.276,2.086,2.306,3.676,2.899c0.136,0.051,0.206,0.203,0.154,0.34C188.829,199.827,188.729,199.892,188.621,199.892z
					 M184.892,191.257c0.495,0.97,1.156,1.851,1.962,2.575c0.738,0.664,1.919,1.487,3.352,1.641c0.219,0.024,0.5,0.037,0.728-0.064
					c0.517-0.23,0.644-0.983,0.502-1.608c-0.475-2.094-2.832-3.262-4.81-3.298c-0.324-0.008-0.686,0.006-1.008,0.143
					C185.311,190.776,185.073,191.003,184.892,191.257z"/>
				<path style="fill:#FFFFFF;" d="M209.086,193.356c-0.412,0-0.808-0.13-1.096-0.455c-0.249-0.281-0.347-0.639-0.404-0.92
					c-0.249-1.227-0.046-2.615,0.587-4.015c0.425-0.94,1.017-1.803,1.729-2.557c-0.062-0.007-0.121-0.011-0.179-0.015
					c-1.48-0.086-3.075,0.628-4.144,1.86c-0.98,1.131-1.566,2.687-1.65,4.381c-0.007,0.146-0.126,0.261-0.276,0.251
					c-0.146-0.007-0.258-0.131-0.251-0.277c0.09-1.812,0.722-3.48,1.779-4.7c1.191-1.373,2.903-2.14,4.571-2.042
					c0.188,0.011,0.397,0.035,0.613,0.082c1.611-1.497,3.722-2.475,5.902-2.634c0.163-0.01,0.271,0.099,0.283,0.244
					c0.011,0.145-0.099,0.271-0.244,0.282c-1.965,0.144-3.869,0.99-5.362,2.294c0.283,0.126,0.554,0.307,0.773,0.564
					c0.295,0.344,0.446,0.773,0.546,1.109c0.637,2.14,0.18,4.953-1.927,6.188C209.97,193.212,209.519,193.356,209.086,193.356z
					 M210.515,185.535c-0.775,0.766-1.415,1.662-1.861,2.649c-0.409,0.905-0.837,2.28-0.55,3.691
					c0.044,0.216,0.116,0.488,0.281,0.675c0.378,0.424,1.134,0.315,1.685-0.008c1.853-1.086,2.252-3.687,1.688-5.582
					c-0.085-0.286-0.212-0.649-0.44-0.917C211.101,185.79,210.811,185.632,210.515,185.535z"/>
				<path style="fill:#FFFFFF;" d="M198.813,188.096c-0.018,0-0.036-0.002-0.055-0.006c-0.143-0.03-0.234-0.171-0.203-0.313
					c0.41-1.926,0.129-3.991-0.706-5.789c-0.2,0.237-0.449,0.446-0.759,0.585c-0.411,0.186-0.866,0.212-1.217,0.215
					c-0.013,0-0.024,0-0.036,0c-2.225,0-4.773-1.224-5.368-3.578c-0.203-0.805-0.057-1.845,0.748-2.227
					c0.339-0.161,0.709-0.154,0.995-0.131c1.578,0.131,2.879,0.988,3.692,1.684c0.784,0.671,1.447,1.479,1.973,2.374
					c0.023-0.057,0.044-0.113,0.063-0.167c0.496-1.405,0.255-3.128-0.63-4.498c-0.813-1.257-2.143-2.254-3.746-2.808
					c-0.138-0.047-0.211-0.198-0.164-0.335c0.048-0.138,0.199-0.212,0.336-0.164c1.715,0.592,3.142,1.665,4.018,3.02
					c0.986,1.526,1.242,3.38,0.685,4.96c-0.063,0.177-0.144,0.372-0.249,0.566c0.987,1.965,1.337,4.264,0.881,6.403
					C199.044,188.011,198.935,188.096,198.813,188.096z M191.94,177.368c-0.167,0-0.345,0.02-0.497,0.093
					c-0.512,0.243-0.62,0.999-0.463,1.62c0.522,2.07,2.887,3.18,4.857,3.18c0.011,0,0.021-0.001,0.031-0.001
					c0.317-0.002,0.684-0.023,1.004-0.168c0.303-0.137,0.535-0.37,0.712-0.629c-0.52-0.957-1.201-1.821-2.025-2.525
					c-0.754-0.645-1.955-1.44-3.392-1.559C192.098,177.373,192.02,177.368,191.94,177.368z"/>
				<path style="fill:#FFFFFF;" d="M170.553,216.98c-0.141,0-0.257-0.11-0.264-0.251c-0.007-0.146,0.105-0.27,0.251-0.276
					c1.967-0.096,3.892-0.895,5.416-2.162c-0.28-0.133-0.546-0.32-0.76-0.583c-0.283-0.35-0.426-0.783-0.519-1.122
					c-0.584-2.156-0.057-4.957,2.078-6.139c0.727-0.402,1.77-0.525,2.345,0.154c0.241,0.286,0.33,0.646,0.381,0.929
					c0.276,1.559-0.22,3.035-0.684,4c-0.449,0.93-1.062,1.778-1.792,2.514c0.063,0.008,0.122,0.014,0.18,0.019
					c1.489,0.123,3.09-0.553,4.186-1.759c1.008-1.106,1.633-2.647,1.758-4.338c0.012-0.145,0.12-0.259,0.283-0.244
					c0.146,0.011,0.255,0.137,0.244,0.283c-0.135,1.809-0.808,3.462-1.895,4.655c-1.223,1.344-2.941,2.063-4.62,1.93
					c-0.188-0.015-0.396-0.044-0.611-0.097c-1.648,1.457-3.781,2.383-5.965,2.489C170.561,216.98,170.557,216.98,170.553,216.98z
					 M177.962,206.645c-0.314,0-0.659,0.102-0.95,0.263c-1.877,1.039-2.341,3.629-1.824,5.539c0.083,0.306,0.198,0.656,0.419,0.927
					c0.21,0.258,0.494,0.423,0.789,0.527c0.793-0.746,1.455-1.627,1.925-2.603c0.432-0.894,0.894-2.258,0.642-3.677
					c-0.039-0.217-0.104-0.491-0.266-0.681C178.521,206.733,178.254,206.645,177.962,206.645z"/>
				<path style="fill:#FFFFFF;" d="M193.547,228.003c-0.03,0-0.062-0.005-0.093-0.017c-1.699-0.635-3.099-1.742-3.941-3.119
					c-0.948-1.551-1.159-3.411-0.563-4.975c0.067-0.175,0.153-0.368,0.264-0.56c-0.939-1.989-1.232-4.296-0.725-6.422
					c0.034-0.142,0.181-0.229,0.318-0.195c0.142,0.034,0.23,0.176,0.195,0.318c-0.457,1.915-0.227,3.986,0.563,5.804
					c0.206-0.232,0.46-0.435,0.773-0.566c0.415-0.176,0.869-0.189,1.223-0.185c2.232,0.041,4.775,1.328,5.316,3.709
					c0.184,0.81,0.01,1.847-0.803,2.208c-0.344,0.153-0.713,0.137-0.999,0.107c-1.244-0.134-2.506-0.747-3.649-1.774
					c-0.768-0.69-1.411-1.515-1.914-2.422c-0.024,0.057-0.047,0.113-0.067,0.167c-0.53,1.392-0.331,3.12,0.52,4.511
					c0.78,1.276,2.086,2.306,3.676,2.899c0.136,0.051,0.206,0.203,0.154,0.34C193.755,227.938,193.654,228.003,193.547,228.003z
					 M189.816,219.369c0.495,0.97,1.156,1.851,1.962,2.575c0.739,0.664,1.921,1.487,3.353,1.641
					c0.218,0.024,0.498,0.038,0.727-0.064c0.517-0.23,0.644-0.984,0.502-1.609c-0.475-2.093-2.832-3.261-4.81-3.297
					c-0.318-0.01-0.686,0.007-1.008,0.143C190.237,218.887,189.999,219.115,189.816,219.369z"/>
				<path style="fill:#FFFFFF;" d="M174.574,232.888c-0.105,0-0.205-0.064-0.246-0.169c-0.657-1.692-0.761-3.474-0.294-5.018
					c0.526-1.739,1.775-3.133,3.342-3.729c0.176-0.067,0.377-0.131,0.593-0.176c0.861-2.023,2.389-3.777,4.314-4.812
					c0.129-0.07,0.288-0.021,0.357,0.107c0.069,0.128,0.021,0.289-0.107,0.357c-1.734,0.933-3.128,2.482-3.959,4.281
					c0.001,0,0.003,0,0.004,0c0.309,0,0.627,0.055,0.932,0.2c0.408,0.193,0.723,0.523,0.951,0.79
					c1.455,1.694,2.185,4.449,0.766,6.435c-0.484,0.676-1.374,1.235-2.182,0.87c-0.344-0.155-0.578-0.442-0.745-0.675
					c-0.919-1.286-1.106-2.833-1.102-3.904c0.005-1.032,0.192-2.061,0.535-3.041c-0.06,0.02-0.116,0.04-0.17,0.06
					c-1.393,0.531-2.552,1.829-3.024,3.389c-0.434,1.431-0.334,3.091,0.28,4.673c0.053,0.136-0.015,0.289-0.15,0.342
					C174.639,232.882,174.606,232.888,174.574,232.888z M178.344,224.271c-0.395,1.015-0.612,2.094-0.618,3.178
					c-0.004,0.993,0.166,2.424,1.004,3.595c0.128,0.179,0.304,0.397,0.532,0.501c0.517,0.231,1.162-0.174,1.535-0.696
					c1.248-1.746,0.552-4.283-0.736-5.784c-0.207-0.241-0.46-0.507-0.777-0.657C178.983,224.265,178.659,224.238,178.344,224.271z"
					/>
				<path style="fill:#FFFFFF;" d="M173.331,250.464c-0.006,0-0.012-0.001-0.019-0.001c-1.809-0.125-3.466-0.788-4.666-1.867
					c-1.351-1.217-2.082-2.94-1.956-4.609c0.015-0.187,0.043-0.396,0.094-0.612c-1.466-1.639-2.404-3.767-2.523-5.95
					c-0.008-0.146,0.104-0.27,0.249-0.278c0.146,0.002,0.27,0.104,0.278,0.249c0.107,1.966,0.918,3.886,2.193,5.403
					c0.131-0.281,0.316-0.547,0.578-0.763c0.351-0.288,0.782-0.432,1.12-0.525c2.15-0.596,4.954-0.086,6.15,2.042
					c0.406,0.724,0.536,1.767-0.14,2.345c-0.286,0.244-0.645,0.335-0.928,0.387c-1.559,0.286-3.035-0.202-4.003-0.662
					c-0.933-0.443-1.784-1.05-2.524-1.776c-0.008,0.061-0.014,0.121-0.018,0.179c-0.112,1.485,0.57,3.085,1.782,4.177
					c1.112,1.001,2.657,1.616,4.35,1.733c0.146,0.01,0.255,0.136,0.245,0.281C173.585,250.357,173.469,250.464,173.331,250.464z
					 M167.373,243.237c0.751,0.789,1.635,1.445,2.613,1.91c0.896,0.425,2.262,0.879,3.681,0.619c0.217-0.04,0.49-0.107,0.681-0.269
					c0.429-0.367,0.336-1.126,0.021-1.685c-1.051-1.872-3.642-2.321-5.549-1.793c-0.287,0.08-0.651,0.2-0.926,0.424
					C167.639,242.656,167.476,242.942,167.373,243.237z"/>
				<path style="fill:#FFFFFF;" d="M165.061,227.48c-0.006,0-0.012-0.001-0.018-0.001c-1.81-0.125-3.467-0.788-4.666-1.867
					c-1.351-1.216-2.082-2.939-1.956-4.609c0.015-0.187,0.043-0.396,0.094-0.612c-1.466-1.639-2.404-3.767-2.523-5.95
					c-0.008-0.146,0.104-0.27,0.249-0.278c0.148,0.005,0.27,0.104,0.278,0.249c0.107,1.966,0.918,3.886,2.193,5.403
					c0.131-0.281,0.316-0.547,0.578-0.763c0.35-0.287,0.782-0.432,1.12-0.525c2.146-0.599,4.955-0.086,6.15,2.042
					c0.407,0.724,0.537,1.767-0.14,2.345c-0.286,0.245-0.646,0.335-0.928,0.387c-1.559,0.286-3.035-0.202-4.003-0.662
					c-0.933-0.443-1.784-1.05-2.524-1.776c-0.008,0.061-0.014,0.121-0.018,0.179c-0.112,1.485,0.57,3.085,1.782,4.176
					c1.112,1.001,2.656,1.617,4.35,1.733c0.146,0.01,0.255,0.136,0.245,0.281C165.315,227.374,165.199,227.48,165.061,227.48z
					 M159.104,220.254c0.751,0.789,1.635,1.445,2.613,1.91c0.898,0.426,2.263,0.878,3.681,0.619c0.217-0.04,0.49-0.106,0.68-0.268
					c0.431-0.367,0.337-1.126,0.022-1.685c-1.051-1.872-3.642-2.321-5.549-1.793c-0.306,0.085-0.654,0.202-0.925,0.424
					C159.369,219.673,159.206,219.958,159.104,220.254z"/>
				<path style="fill:#FFFFFF;" d="M213.417,217.873c-0.412,0-0.808-0.131-1.096-0.456c-0.249-0.28-0.347-0.638-0.404-0.919
					c-0.315-1.551,0.145-3.039,0.587-4.015c0.425-0.94,1.017-1.803,1.729-2.557c-0.062-0.007-0.121-0.011-0.179-0.015
					c-1.486-0.083-3.074,0.628-4.143,1.86c-0.98,1.131-1.566,2.686-1.65,4.381c-0.007,0.145-0.115,0.255-0.276,0.251
					c-0.146-0.007-0.258-0.131-0.251-0.277c0.09-1.812,0.722-3.48,1.779-4.7c1.192-1.374,2.921-2.133,4.571-2.042
					c0.188,0.011,0.398,0.035,0.613,0.082c1.611-1.497,3.722-2.475,5.902-2.634c0.162-0.015,0.271,0.099,0.283,0.244
					c0.011,0.145-0.099,0.271-0.244,0.282c-1.965,0.144-3.869,0.99-5.362,2.294c0.283,0.126,0.554,0.307,0.773,0.564
					c0.295,0.344,0.446,0.773,0.546,1.109c0.637,2.141,0.18,4.953-1.927,6.188C214.301,217.729,213.85,217.873,213.417,217.873z
					 M214.846,210.052c-0.775,0.766-1.415,1.662-1.861,2.649c-0.409,0.904-0.837,2.279-0.55,3.691
					c0.044,0.216,0.116,0.488,0.281,0.674c0.376,0.422,1.132,0.315,1.685-0.008c1.852-1.085,2.252-3.686,1.688-5.581
					c-0.085-0.286-0.212-0.648-0.44-0.917C215.432,210.308,215.143,210.149,214.846,210.052z"/>
				<path style="fill:#FFFFFF;" d="M212.153,236.086c-0.138,0-0.254-0.107-0.264-0.246c-0.134-1.965-0.972-3.872-2.269-5.372
					c-0.128,0.283-0.31,0.552-0.568,0.771c-0.345,0.292-0.775,0.442-1.111,0.541c-2.143,0.627-4.953,0.157-6.18-1.955
					c-0.417-0.718-0.561-1.758,0.106-2.347c0.282-0.247,0.641-0.344,0.922-0.399c1.227-0.244,2.614-0.035,4.013,0.604
					c0.938,0.43,1.799,1.025,2.55,1.741c0.006-0.062,0.012-0.122,0.015-0.18c0.091-1.487-0.614-3.078-1.842-4.151
					c-1.126-0.985-2.679-1.579-4.373-1.671c-0.145-0.008-0.257-0.132-0.249-0.278c0.009-0.146,0.142-0.246,0.278-0.25
					c1.811,0.099,3.478,0.739,4.691,1.801c1.368,1.197,2.124,2.909,2.021,4.581c-0.012,0.188-0.036,0.398-0.085,0.613
					c1.49,1.618,2.458,3.733,2.607,5.914c0.01,0.146-0.101,0.271-0.246,0.281C212.165,236.086,212.159,236.086,212.153,236.086z
					 M203.821,227.508c-0.305,0-0.615,0.027-0.928,0.089c-0.217,0.043-0.489,0.114-0.676,0.278
					c-0.425,0.374-0.321,1.131,0.001,1.686c1.077,1.857,3.678,2.269,5.574,1.713c0.286-0.084,0.649-0.209,0.918-0.437
					c0.254-0.215,0.414-0.503,0.512-0.8c-0.762-0.778-1.655-1.422-2.641-1.873C205.879,227.842,204.892,227.508,203.821,227.508z"/>
				<path style="fill:#FFFFFF;" d="M204.407,250.498c-0.366,0-0.719-0.111-0.996-0.384c-0.268-0.262-0.39-0.613-0.467-0.89
					c-0.419-1.527-0.062-3.043,0.313-4.045c0.359-0.967,0.891-1.869,1.55-2.669c-0.063-0.002-0.124-0.004-0.181-0.002
					c-1.49,0.018-3.024,0.837-4.005,2.139c-0.9,1.195-1.38,2.787-1.349,4.483c0.003,0.146-0.113,0.266-0.259,0.269
					c-0.116,0.02-0.267-0.113-0.269-0.259c-0.033-1.814,0.483-3.523,1.454-4.811c1.093-1.451,2.746-2.329,4.421-2.349
					c0.188,0.003,0.4,0.007,0.618,0.04c1.505-1.604,3.543-2.723,5.708-3.031c0.151-0.022,0.278,0.08,0.299,0.224
					c0.02,0.144-0.08,0.278-0.225,0.298c-1.95,0.278-3.792,1.252-5.192,2.655c0.292,0.107,0.573,0.268,0.811,0.51
					c0.315,0.323,0.497,0.742,0.62,1.07c0.781,2.092,0.517,4.93-1.5,6.305C205.373,250.313,204.879,250.498,204.407,250.498z
					 M205.427,242.593c-0.721,0.816-1.298,1.755-1.676,2.77c-0.347,0.93-0.679,2.33-0.297,3.721
					c0.059,0.212,0.149,0.479,0.326,0.653c0.402,0.395,1.15,0.238,1.682-0.124c1.773-1.208,1.994-3.831,1.303-5.684
					c-0.111-0.297-0.258-0.635-0.503-0.885C206.028,242.807,205.73,242.67,205.427,242.593z"/>
				<path style="fill:#FFFFFF;" d="M183.576,253.928c-0.105,0-0.205-0.064-0.245-0.168c-0.054-0.135,0.013-0.288,0.148-0.342
					c1.832-0.723,3.397-2.098,4.434-3.788c-0.308-0.036-0.619-0.128-0.906-0.308c-0.384-0.241-0.657-0.606-0.853-0.897
					c-1.245-1.853-1.646-4.674-0.005-6.48c0.56-0.614,1.508-1.068,2.269-0.607c0.323,0.194,0.522,0.507,0.66,0.757
					c0.764,1.387,0.768,2.944,0.637,4.007c-0.125,1.024-0.433,2.025-0.888,2.956c0.062-0.012,0.12-0.026,0.176-0.04
					c1.445-0.364,2.748-1.518,3.399-3.011c0.599-1.371,0.694-3.031,0.27-4.674c-0.036-0.141,0.049-0.285,0.189-0.322
					c0.148-0.036,0.284,0.049,0.322,0.19c0.453,1.756,0.348,3.538-0.297,5.017c-0.727,1.666-2.131,2.904-3.755,3.312
					c-0.183,0.046-0.39,0.085-0.61,0.105c-1.092,1.909-2.814,3.472-4.849,4.274C183.642,253.922,183.608,253.928,183.576,253.928z
					 M187.731,241.68c-0.413,0-0.873,0.27-1.191,0.621c-1.443,1.588-1.05,4.189,0.053,5.831c0.177,0.263,0.397,0.557,0.695,0.744
					c0.281,0.177,0.604,0.241,0.917,0.245c0.511-0.961,0.855-2.008,0.986-3.083c0.121-0.985,0.119-2.425-0.576-3.688
					c-0.105-0.193-0.254-0.43-0.469-0.56C188.02,241.714,187.878,241.68,187.731,241.68z"/>
				<path style="fill:#FFFFFF;" d="M203.144,212.613c-0.018,0-0.036-0.002-0.055-0.006c-0.143-0.03-0.234-0.171-0.203-0.313
					c0.41-1.926,0.129-3.991-0.706-5.789c-0.2,0.237-0.449,0.446-0.759,0.585c-0.412,0.187-0.867,0.212-1.218,0.214
					c-0.012,0-0.024,0-0.037,0c-2.224,0-4.771-1.224-5.366-3.578c-0.203-0.805-0.057-1.845,0.748-2.227
					c0.337-0.161,0.709-0.154,0.995-0.131c1.577,0.131,2.879,0.988,3.692,1.684c0.784,0.671,1.447,1.48,1.973,2.374
					c0.023-0.058,0.044-0.114,0.064-0.168c0.496-1.405,0.255-3.128-0.63-4.498c-0.813-1.257-2.143-2.254-3.745-2.808
					c-0.138-0.047-0.211-0.198-0.164-0.336c0.048-0.137,0.197-0.211,0.336-0.163c1.714,0.592,3.141,1.664,4.017,3.02
					c0.986,1.526,1.242,3.38,0.684,4.96c-0.063,0.177-0.145,0.372-0.25,0.566c0.988,1.965,1.338,4.265,0.882,6.403
					C203.375,212.528,203.266,212.613,203.144,212.613z M196.27,201.885c-0.166,0-0.344,0.021-0.495,0.092
					c-0.512,0.243-0.62,0.999-0.463,1.621c0.524,2.07,2.886,3.179,4.857,3.179c0.011,0,0.021-0.001,0.032-0.001
					c0.299-0.001,0.682-0.022,1.004-0.167c0.303-0.137,0.535-0.37,0.712-0.629c-0.52-0.957-1.201-1.822-2.024-2.526
					c-0.754-0.646-1.955-1.44-3.392-1.559C196.429,201.89,196.351,201.885,196.27,201.885z"/>
				<path style="fill:#FFFFFF;" d="M169.107,209.643c-0.018,0-0.036-0.002-0.055-0.006c-0.143-0.03-0.234-0.171-0.203-0.314
					c0.41-1.926,0.129-3.991-0.706-5.788c-0.2,0.237-0.449,0.446-0.759,0.585c-0.411,0.186-0.866,0.212-1.217,0.215
					c-0.013,0-0.024,0-0.036,0c-2.225,0-4.773-1.224-5.368-3.578c-0.203-0.805-0.057-1.845,0.748-2.227
					c0.338-0.161,0.708-0.154,0.995-0.131c1.577,0.131,2.879,0.988,3.692,1.684c0.784,0.671,1.447,1.48,1.973,2.374
					c0.023-0.058,0.044-0.114,0.063-0.168c0.496-1.405,0.255-3.128-0.63-4.498c-0.813-1.257-2.143-2.254-3.746-2.808
					c-0.138-0.047-0.211-0.198-0.164-0.335c0.048-0.138,0.2-0.211,0.336-0.163c1.715,0.592,3.142,1.664,4.018,3.02
					c0.986,1.526,1.242,3.38,0.685,4.96c-0.063,0.177-0.145,0.372-0.25,0.566c0.988,1.965,1.338,4.265,0.882,6.403
					C169.339,209.558,169.23,209.643,169.107,209.643z M162.233,198.915c-0.166,0-0.344,0.021-0.495,0.092
					c-0.512,0.243-0.62,0.999-0.463,1.621c0.522,2.07,2.887,3.18,4.857,3.18c0.011,0,0.021-0.001,0.031-0.001
					c0.317-0.002,0.684-0.023,1.004-0.168c0.303-0.137,0.535-0.37,0.712-0.629c-0.52-0.957-1.201-1.822-2.024-2.526
					c-0.754-0.646-1.955-1.44-3.392-1.559C162.393,198.919,162.314,198.915,162.233,198.915z"/>
			</g>
		</g>
		<path style="fill:#CE7A63;" d="M177.2,154.105c0.256,8.75-1.349,13.637-3.204,18.402c3.236,3.008,8.481,6.74,15.47,6.639
			c6.989-0.102,5.836-3.677,3.961-6.112c-5.008-2.527-5.328-6.234-4.103-8.479L177.2,154.105z"/>
		<path style="opacity:0.2;" d="M189.329,164.556l-5.539-3.454c-2.551,0.403-3.778,3.646-0.615,6.094
			c2.166,1.675,5.574,2.332,6.031,1.886C188.45,167.421,188.661,165.769,189.329,164.556z"/>
		<path style="fill:#263238;" d="M191.508,140.383c7.126-1.494,5.929,7.346,4.077,11.94
			C190.918,145.498,191.508,140.383,191.508,140.383z"/>
		<path style="fill:#CE7A63;" d="M173.274,149.785c1.376,7.84,1.809,11.9,6.85,14.565c12.57,6.644,15.415,2.066,16.411-6.048
			c0.896-7.304-1.504-18.898-9.592-21.099C178.974,135.035,171.898,141.945,173.274,149.785z"/>
		<path style="fill:#263238;" d="M175.621,156.239c6.828,1.401-0.484-5.791,1.1-8.713c1.584-2.921,10.165-0.748,7.707-5.517
			c6.667,1.694,12.854,2.299,14.207-2.2c1.965-6.54-4.385-7.786-8.141-5.896c-3.15,1.585-3.124,2.112-7.832,0.528
			c-4.708-1.584-16.413-0.66-13.421,4.708c-5.324,0.22-5.324,7.04-0.924,8.932C172.717,149.973,170.473,155.183,175.621,156.239z"/>
		<path style="fill:#FFFFFF;" d="M174.191,152.586c-0.112,0-0.217-0.073-0.252-0.186c-0.043-0.139,0.034-0.287,0.174-0.33
			l10.637-3.3c0.141-0.045,0.287,0.035,0.33,0.174c0.043,0.139-0.034,0.287-0.174,0.33l-10.637,3.3
			C174.243,152.583,174.217,152.586,174.191,152.586z"/>
		<path style="fill:#263238;" d="M170.453,139.518c-2.574-2.068-5.984-2.576-5.962-1.354c0.022,1.222,4.796,0.958,5.258,1.816
			C170.211,140.838,170.453,139.518,170.453,139.518z"/>
		<path style="fill:#FFFFFF;" d="M192.59,158.238c0,0-2.425-0.495-9.245-0.71c0.786,1.561,2.266,2.862,5.759,2.947
			C192.598,160.561,192.59,158.238,192.59,158.238z"/>
		<path style="fill:#CE7A63;" d="M170.905,155.84c0.903,1.853,2.451,3.112,3.9,3.633c2.18,0.783,3.22-1.368,2.572-3.714
			c-0.583-2.112-2.419-5.064-4.586-4.826C170.655,151.167,169.873,153.721,170.905,155.84z"/>
		<path style="fill:#263238;" d="M186.58,149.908c0.101,0.671,0.539,1.157,0.977,1.087c0.438-0.07,0.711-0.671,0.61-1.342
			c-0.102-0.671-0.539-1.157-0.978-1.087C186.752,148.636,186.479,149.237,186.58,149.908z"/>
		<path style="fill:#263238;" d="M193.826,149.753c0.102,0.671,0.539,1.157,0.978,1.087c0.438-0.07,0.711-0.671,0.61-1.342
			c-0.101-0.671-0.539-1.157-0.977-1.087C193.997,148.482,193.724,149.083,193.826,149.753z"/>
		<path style="fill:#263238;" d="M183.859,148.207c-0.066-0.005-0.132-0.027-0.19-0.067c-0.182-0.123-0.228-0.37-0.104-0.553
			c1.247-1.83,3.088-1.825,3.165-1.823c0.221,0.003,0.394,0.184,0.389,0.404c-0.005,0.219-0.187,0.395-0.406,0.393l0,0
			c-0.061,0-1.496,0.011-2.491,1.471C184.138,148.155,183.997,148.218,183.859,148.207z"/>
		<path style="fill:#263238;" d="M195.846,146.031c-0.127,0.024-0.262-0.014-0.358-0.113c-1.218-1.26-2.631-1.01-2.691-0.999
			c-0.216,0.041-0.423-0.1-0.463-0.316s0.101-0.424,0.316-0.467c0.078-0.014,1.886-0.354,3.412,1.224
			c0.152,0.158,0.147,0.41-0.011,0.564C195.992,145.981,195.921,146.017,195.846,146.031z"/>
		<path style="fill:#FFFFFF;" d="M194.643,154.508c-0.481,0-0.936-0.218-1.316-0.631c-0.84-0.913-1.26-2.697-1.096-4.656
			c0.245-2.94,1.671-5.244,3.246-5.244c0.481,0,0.937,0.218,1.316,0.631c0.84,0.913,1.261,2.697,1.097,4.656
			C197.645,152.205,196.219,154.508,194.643,154.508z M195.477,144.505c-1.26,0-2.505,2.179-2.721,4.759
			c-0.148,1.789,0.227,3.459,0.959,4.255c0.281,0.306,0.594,0.461,0.928,0.461c1.26,0,2.506-2.179,2.722-4.759
			c0.148-1.789-0.228-3.459-0.96-4.255C196.123,144.66,195.811,144.505,195.477,144.505z"/>
		<path style="fill:#BA4D3C;" d="M191.76,149.78c0,0,1.941,3.718,3.826,5.404c-1.078,1.249-3.161,0.97-3.161,0.97L191.76,149.78z"/>
		<g>
			<path style="fill:#CF7A64;" d="M167.988,190.731l-2.622,2.734l-2.661,2.815c-1.767,1.877-3.482,3.788-5.14,5.682
				c-0.828,0.95-1.628,1.907-2.389,2.864c-0.778,0.947-1.52,1.897-2.192,2.834c-0.679,0.932-1.284,1.872-1.807,2.721
				c-0.51,0.838-0.895,1.65-1.066,2.065l0.176-1.357c-0.084-0.184-0.102,0.373,0.023,1.042c0.118,0.685,0.369,1.533,0.696,2.408
				c0.654,1.755,1.507,3.682,2.48,5.583c0.951,1.924,2.006,3.861,3.08,5.814l3.264,5.864l0.061,0.109
				c1.07,1.921,0.379,4.346-1.542,5.415c-1.448,0.806-3.184,0.609-4.408-0.358c-1.967-1.558-3.697-3.156-5.436-4.865
				c-1.72-1.707-3.364-3.504-4.951-5.423c-1.556-1.945-3.097-3.965-4.461-6.35c-0.685-1.191-1.345-2.466-1.929-3.974
				c-0.57-1.52-1.107-3.239-1.148-5.733c-0.005-0.305,0.023-0.603,0.08-0.891l0.096-0.467c0.456-2.229,1.139-3.932,1.84-5.519
				c0.704-1.572,1.5-2.96,2.296-4.304c1.595-2.681,3.312-5.081,5.099-7.381c1.77-2.313,3.642-4.476,5.549-6.592
				c0.965-1.046,1.926-2.093,2.93-3.101c1.008-1.033,1.981-1.977,3.12-3.035c3.2-2.973,8.204-2.789,11.177,0.41
				c2.864,3.082,2.798,7.838-0.07,10.841L167.988,190.731z"/>
			<path style="fill:#CE7A63;" d="M154.689,229.491l8.861,0.126l-3.123,10.159c0,0-8.009-1.088-8.119-5.437L154.689,229.491z"/>
			<path style="fill:#CE7A63;" d="M170.016,236.168l-1.695,3.376c-0.675,1.344-2.223,2.001-3.659,1.554l-4.236-1.321l3.123-10.159
				l5.042,2.4C170.146,232.757,170.789,234.63,170.016,236.168z"/>
			<path style="fill:#263238;" d="M166.135,173.554c-4.385,1.054-9.611,2.794-14.319,8.03c-3.331,3.704-9.031,11.843-11.813,17.408
				c4.978,8.657,13.075,9.654,15.246,9.091c7.615-5.126,12.233-7.734,14.374-14.515
				C171.764,186.787,169.421,178.798,166.135,173.554z"/>
		</g>
		<path style="fill:#FFFFFF;" d="M186.957,154.508c-0.481,0-0.937-0.218-1.315-0.631c-0.84-0.913-1.261-2.697-1.098-4.657
			c0.245-2.94,1.671-5.244,3.247-5.244c0.482,0,0.936,0.218,1.316,0.631c0.84,0.913,1.26,2.697,1.096,4.656
			C189.958,152.205,188.532,154.508,186.957,154.508z M187.791,144.505c-1.26,0-2.506,2.179-2.722,4.759
			c-0.148,1.789,0.229,3.46,0.96,4.255c0.281,0.305,0.594,0.46,0.928,0.46c1.26,0,2.505-2.179,2.721-4.759
			c0.148-1.79-0.228-3.46-0.959-4.255C188.438,144.66,188.125,144.505,187.791,144.505z"/>
		<path style="fill:#FFFFFF;" d="M192.493,149.506c-0.103,0-0.2-0.06-0.243-0.161c-0.045-0.107-0.122-0.178-0.24-0.224
			c-0.529-0.205-1.593,0.19-1.958,0.359c-0.133,0.063-0.288,0.004-0.351-0.128c-0.062-0.132-0.004-0.29,0.128-0.351
			c0.154-0.072,1.535-0.695,2.369-0.374c0.251,0.096,0.437,0.272,0.538,0.509c0.057,0.134-0.006,0.289-0.14,0.346
			C192.563,149.499,192.527,149.506,192.493,149.506z"/>
	</g>
</g>
<g id="Character_2">
	<g>
		<path style="fill:#263238;" d="M334.758,171.893c7.829-8.987,3.795-18.833-4.998-24.249c-8.793-5.416-19.064-1.468-23.033,7.729
			c-3.968,9.197-2.539,11.57-4.972,12.072c-1.119,4.831,2.357,9.911,6.378,7.236C314.211,177.251,324.868,183.246,334.758,171.893z"
			/>
		<path style="fill:#263238;" d="M324.01,179.177c-4.305,0-8.096-1.867-10.882-3.239c-0.435-0.214-0.85-0.419-1.242-0.605l0.4-0.847
			c0.396,0.188,0.816,0.394,1.256,0.61c5.296,2.608,13.299,6.55,21.841-2.332c3.146-3.271,4.61-6.949,4.234-10.634
			c-0.397-3.902-2.896-7.699-6.857-10.418l0.531-0.772c4.188,2.875,6.833,6.919,7.259,11.095c0.404,3.968-1.148,7.903-4.491,11.379
			C331.87,177.771,327.746,179.177,324.01,179.177z"/>
		<path style="fill:#263238;" d="M305.902,159.011c-1.69-5.926,0.237-17.937,14.972-17.953
			c14.785-0.016,21.004,10.434,14.844,19.093C317.941,164.174,305.902,159.011,305.902,159.011z"/>
		<path style="fill:#263238;" d="M299.8,170.9c-9.187,2.42-1.228,17.74,7.798,10.75c-1.947-0.135-6.4-4.56-3.027-7.42
			C300.99,171.088,299.8,170.9,299.8,170.9z"/>
		<path style="fill:#263238;" d="M299.918,184.583c-1.032,0-1.871-0.295-2.45-0.587c-2.534-1.281-4.204-4.529-3.885-7.556
			c0.276-2.616,1.976-4.522,4.662-5.23l0.238,0.906c-3.134,0.826-3.831,3.125-3.968,4.422c-0.281,2.661,1.17,5.507,3.375,6.621
			c1.952,0.986,4.206,0.453,6.349-1.505l0.633,0.692C302.988,184.066,301.284,184.583,299.918,184.583z"/>
		<path style="fill:#407BFF;" d="M306.95,175.256c-2.36-0.487-5.965-6.609-4.502-8.063c-1.905-0.064-3.487,1.432-4.037,3.126
			c-0.613,1.888,0.594,5.434,4.818,6.49C305.372,177.346,306.95,175.256,306.95,175.256z"/>
		<path style="fill:#FFB573;" d="M307.449,200.501c-0.071,2.286-0.243,4.544-0.374,6.817l-0.582,6.806
			c-0.2,2.274-0.479,4.543-0.762,6.841c-0.155,1.148-0.324,2.3-0.527,3.502c-0.208,1.273-0.526,2.62-0.893,3.812
			c-1.541,4.799-3.721,8.933-6.07,12.961c-2.365,4.016-4.946,7.796-7.807,11.475c-0.735,0.945-2.097,1.116-3.043,0.38
			c-0.835-0.649-1.065-1.787-0.601-2.695l0.024-0.047c2.011-3.947,3.964-8.01,5.754-12.034c0.878-2.025,1.74-4.041,2.479-6.069
			c0.75-2.019,1.418-4.041,1.861-5.995c0.222-0.993,0.377-1.862,0.463-2.833c0.089-1.042,0.16-2.139,0.218-3.244l0.365-6.686
			l0.345-6.736c0.157-2.243,0.258-4.501,0.44-6.733l0.001-0.011c0.196-2.402,2.302-4.191,4.704-3.996
			C305.766,196.206,307.516,198.197,307.449,200.501z"/>
		<path style="fill:#FFB573;" d="M306.779,241.222c0,0,0.012,52.362,3.181,80.72c0.327,26.623,6.406,86.775,6.406,86.775l6.719,0
			c1.131-29.843,9.442-57.711,3.92-84.035c12.921-51.689,6.925-83.43,6.925-83.43L306.779,241.222z"/>
		<path style="fill:#FFB573;" d="M314.097,241.252c0,0,5.048,64.081,15.082,87.023c10.538,24.093,29.254,71.307,31.097,79.305
			l5.614-1.495c0,0-3.706-51.814-20.84-81.101c5.303-72.222-8.054-83.732-8.054-83.732H314.097z"/>
		<path style="fill:#263238;" d="M304.643,187.466c-5.636,4.762-7.444,12.511-7.373,17.761c3.369,5.53,13.902,7.245,13.902,7.245
			s1.668-10.805,0.866-15.897C311.235,191.483,307.888,184.724,304.643,187.466z"/>
		<path style="fill:#263238;" d="M300.604,197.414c-0.665-5.974,3.45-11.354,9.362-12.396c1.638-0.289,3.355-0.561,5.02-0.771
			c5.022-0.636,9.737-0.618,15.496-0.545c1.481,0.019,2.93,0.082,4.3,0.171c5.127,0.332,8.932,5.005,8.174,10.035
			c-3.268,21.697-5.207,37.387-3.068,46.9c0,0,6.767,9.024,9.832,29.717c2.677,18.072,2.019,48.546,4.947,64.918
			c-10.532,7.525-43.993,7.066-48.932,2.662c1.393-33.1-5.374-76.471-0.228-96.492c-2.061-11.101-0.94-19.588-2.1-26.311
			C295.672,210.052,301.475,205.244,300.604,197.414z"/>
		<path style="fill:#FFFFFF;" d="M320.086,244.729c-5.929,0-11.427-0.57-13.85-1.636c-0.996-0.439-1.471-0.965-1.409-1.566
			c0.016-0.157,0.156-0.274,0.314-0.255c0.156,0.016,0.271,0.156,0.255,0.313c-0.044,0.428,0.652,0.801,1.071,0.985
			c5.834,2.567,29.753,2.281,33.598-2.038c0.104-0.118,0.286-0.128,0.402-0.023c0.118,0.105,0.129,0.286,0.023,0.403
			C338.159,243.532,328.673,244.729,320.086,244.729z"/>
		<path style="fill:#FFFFFF;" d="M319.801,242.691c-5.929,0-11.427-0.57-13.85-1.636c-0.996-0.439-1.471-0.965-1.409-1.566
			c0.016-0.157,0.162-0.271,0.314-0.255c0.156,0.016,0.271,0.156,0.255,0.313c-0.044,0.428,0.652,0.801,1.071,0.985
			c5.834,2.566,29.753,2.281,33.598-2.038c0.104-0.118,0.287-0.128,0.402-0.023c0.118,0.105,0.129,0.286,0.023,0.403
			C337.874,241.495,328.388,242.691,319.801,242.691z"/>
		<path style="opacity:0.2;" d="M325.006,310.004c0.919-13.317,0.007-33.245-8.139-44.413
			C318.997,279.753,325.006,310.004,325.006,310.004z"/>
		<path style="fill:#FFB573;" d="M327.939,166.382c-0.69,4.999-1.138,14.13,2.542,17.32c0,0-11.882,4.697-18.667,16.545
			c-4.886-11.13,3.172-16.001,3.172-16.001c5.483-1.517,5.102-5.62,3.91-9.443L327.939,166.382z"/>
		<path style="opacity:0.2;" d="M324.252,169.818l-5.353,4.981c0.285,0.905,0.52,1.824,0.637,2.722
			c2.106-0.38,4.889-2.804,4.987-5.027C324.571,171.386,324.463,170.326,324.252,169.818z"/>
		<path style="fill:#FFB573;" d="M329.991,155.328c0.418,8.265,0.771,11.758-2.88,16.353c-5.492,6.912-15.682,5.401-18.548-2.625
			c-2.58-7.224-2.831-19.526,4.795-23.527C320.871,141.587,329.573,147.063,329.991,155.328z"/>
		<path style="fill:#263238;" d="M322.238,148.802c-0.616,8.712,8.801,16.193,11.749,12.893
			C336.935,158.395,329.675,142.862,322.238,148.802z"/>
		<path style="fill:#263238;" d="M309.13,148.098c10.639,8.096,23.053,8.053,22.261,2.156
			C330.599,144.358,315.436,139.122,309.13,148.098z"/>
		<path style="fill:#263238;" d="M317.254,158.644c0.075,0.669-0.224,1.245-0.667,1.285c-0.443,0.04-0.863-0.469-0.938-1.138
			c-0.075-0.669,0.224-1.245,0.667-1.285C316.759,157.465,317.179,157.975,317.254,158.644z"/>
		<path style="fill:#263238;" d="M308.93,159.524c0.075,0.669-0.224,1.245-0.667,1.285c-0.443,0.04-0.863-0.469-0.938-1.138
			s0.224-1.245,0.667-1.285C308.435,158.345,308.855,158.855,308.93,159.524z"/>
		<path style="fill:#263238;" d="M308.192,158.405l-1.68-0.314C306.512,158.09,307.488,159.27,308.192,158.405z"/>
		<path style="fill:#ED893E;" d="M311.558,159.842c0,0-0.828,2.986-1.939,4.492c0.987,0.743,2.467,0.227,2.467,0.227
			L311.558,159.842z"/>
		<path style="fill:#FFB573;" d="M332.683,162.816c-0.647,1.612-1.892,2.661-3.105,3.055c-1.824,0.593-2.874-1.379-2.483-3.444
			c0.352-1.858,1.725-4.406,3.612-4.087C332.566,158.654,333.423,160.973,332.683,162.816z"/>
		<path style="fill:#263238;" d="M319.4,155.295c-0.105-0.012-0.207-0.065-0.277-0.155c-1.098-1.407-2.568-1.327-2.585-1.326
			c-0.218,0.012-0.414-0.15-0.433-0.368c-0.019-0.217,0.145-0.405,0.366-0.42c0.077-0.005,1.921-0.107,3.284,1.64
			c0.136,0.174,0.104,0.422-0.07,0.553C319.601,155.282,319.499,155.307,319.4,155.295z"/>
		<path style="fill:#263238;" d="M306.45,156.647c-0.093,0.035-0.199,0.035-0.298-0.006c-0.205-0.086-0.304-0.318-0.221-0.518
			c0.833-2.008,2.644-2.345,2.721-2.358c0.217-0.038,0.428,0.105,0.47,0.32c0.042,0.214-0.099,0.418-0.315,0.457
			c-0.071,0.012-1.471,0.294-2.133,1.891C306.631,156.536,306.548,156.611,306.45,156.647z"/>
		<path style="fill:#263238;" d="M316.516,157.525l-1.68-0.315C314.836,157.211,315.811,158.39,316.516,157.525z"/>
		<path style="fill:#FFB573;" d="M329.017,228.196l-6.61-3.368l-1.525,8.354c0,0,5.337,1.276,9.098-0.293l0.588-0.986
			C330.697,230.065,330.484,229.31,329.017,228.196z"/>
		<path style="fill:#FFB573;" d="M317.127,227.077l-0.156,3.673c-0.047,1.098,0.758,2.047,1.849,2.181l2.063,0.252l1.525-8.354
			l-3.325,0.237C318.014,225.141,317.173,226.007,317.127,227.077z"/>
		<path style="fill:#FFB573;" d="M343.011,191.486c1.623,4.577,3.079,9.13,4.394,13.789c1.323,4.666,2.563,9.309,3.373,14.361
			c0.185,1.289,0.358,2.569,0.384,4.124c0.044,1.643-0.281,3.631-1.296,5.398c-1.008,1.795-2.662,3.111-4.22,3.845
			c-1.577,0.762-3.105,1.061-4.539,1.226c-2.873,0.316-5.477-0.04-7.989-0.485c-1.256-0.225-2.482-0.533-3.686-0.889
			c-1.217-0.356-2.367-0.726-3.598-1.222c-1.113-0.448-1.652-1.714-1.204-2.827c0.375-0.93,1.321-1.46,2.271-1.346l0.109,0.014
			c1.066,0.128,2.244,0.265,3.365,0.352c1.135,0.081,2.264,0.134,3.374,0.169c2.212,0.057,4.412-0.117,6.249-0.551
			c0.91-0.223,1.711-0.552,2.245-0.903c0.543-0.366,0.762-0.688,0.862-1.014c0.119-0.338,0.181-0.784,0.117-1.511
			c-0.063-0.825-0.253-1.904-0.475-2.958c-0.44-2.14-1.038-4.379-1.669-6.599c-0.631-2.23-1.288-4.472-1.987-6.709
			c-1.41-4.463-2.866-8.977-4.325-13.408l-0.011-0.034c-0.753-2.289,0.492-4.755,2.781-5.508
			C339.79,188.057,342.22,189.26,343.011,191.486z"/>
		<path style="fill:#FFB573;" d="M287.471,248.886l-7.395-0.59l1.779,8.304c0,0,4.839-0.765,7.799-3.284
			c0.334-0.284,0.533-0.696,0.597-1.13l0,0c0.045-0.305,0.02-0.622-0.088-0.911C289.639,249.863,289.091,249.314,287.471,248.886z"
			/>
		<path style="fill:#FFB573;" d="M276.053,252.389l1.257,3.454c0.376,1.033,1.482,1.603,2.541,1.31l2.003-0.554l-1.779-8.304
			l-2.983,1.488C276.134,250.261,275.687,251.382,276.053,252.389z"/>
		<path style="fill:#263238;" d="M337.999,184.712c4.942,2.076,7.295,5.436,11.37,14.781c-1.029,6.393-11.814,11.84-11.814,11.84
			s-3.566-8.102-4.748-13.119C331.625,193.197,332.98,182.605,337.999,184.712z"/>
		<path style="fill:#263238;" d="M323.604,408.762c-0.042-0.216-0.294-0.372-0.605-0.376l-6.244-0.092
			c-0.657-0.007-1.397,0.066-1.882,0.4c-1.85,1.273-5.197,2.729-9.399,3.356c-1.328,0.198-0.726,2.437,2.398,2.472
			c5.165,0.057,6.1-0.333,10.504-0.285c3.767,0.042,1.97,0.215,4.963,0.284c0.717,0.016,1.305-0.449,1.207-0.947L323.604,408.762z"
			/>
		<path style="fill:#263238;" d="M366.989,404.973c-0.096-0.198-0.378-0.286-0.68-0.211l-6.065,1.489
			c-0.637,0.159-1.335,0.418-1.719,0.863c-1.468,1.699-3.497,4.309-7.698,4.937c-1.328,0.198-0.726,2.437,2.397,2.472
			c5.165,0.057,5.818-1.865,10.091-2.931c3.655-0.911,1.961-0.29,4.874-0.98c0.698-0.165,1.149-0.764,0.928-1.222L366.989,404.973z"
			/>
		<path style="fill:#FAFAFA;" d="M314.732,195.92c2.294-0.862,8.765-1.375,11.69,1.348c4.777-2.459,7.391-9.484,6.798-13.786
			c-2.121-1.456-3.914-1.206-3.914-1.206S318.661,188.96,314.732,195.92z"/>
		<path style="fill:#FAFAFA;" d="M310.483,196.023c0,0-1.326-5.618,4.953-11.911c-0.753-0.494-3.404,0.452-3.404,0.452
			s-7.678,4.351-6.45,13.291C307.885,195.778,310.483,196.023,310.483,196.023z"/>
		<path style="fill:#263238;" d="M319.353,164.962c0.301-0.281,0.594-0.604,0.872-0.975c0.075-0.1,0.048-0.238-0.06-0.308
			c-0.108-0.069-0.254-0.047-0.332,0.055c-2.026,2.712-5.021,2.66-5.051,2.659c-0.132-0.004-0.242,0.092-0.245,0.214
			c-0.004,0.122,0.1,0.225,0.231,0.228C314.883,166.839,317.295,166.883,319.353,164.962z"/>
	</g>
</g>
<g id="Table">
	<g>
		<g>
			<path style="fill:#407BFF;" d="M231.23,416.238h-1.758l-7.604-146.325c-0.226-4.427-3.882-7.896-8.309-7.896h-26.526
				c-4.437,0-8.093,3.469-8.319,7.896l-7.604,146.325h-1.758l7.614-146.419c0.282-5.358,4.7-9.55,10.067-9.55h26.526
				c5.358,0,9.785,4.192,10.058,9.55L231.23,416.238z"/>
			<path style="opacity:0.7;fill:#FFFFFF;" d="M231.23,416.238h-1.758l-7.604-146.325c-0.226-4.427-3.882-7.896-8.309-7.896h-26.526
				c-4.437,0-8.093,3.469-8.319,7.896l-7.604,146.325h-1.758l7.614-146.419c0.282-5.358,4.7-9.55,10.067-9.55h26.526
				c5.358,0,9.785,4.192,10.058,9.55L231.23,416.238z"/>
			<path style="fill:#407BFF;" d="M330.18,416.238h-1.758l-7.604-146.325c-0.226-4.427-3.882-7.896-8.309-7.896h-26.526
				c-4.437,0-8.093,3.469-8.319,7.896l-7.604,146.325h-1.758l7.614-146.419c0.282-5.358,4.7-9.55,10.067-9.55h26.526
				c5.358,0,9.785,4.192,10.058,9.55L330.18,416.238z"/>
			<path style="opacity:0.7;fill:#FFFFFF;" d="M330.18,416.238h-1.758l-7.604-146.325c-0.226-4.427-3.882-7.896-8.309-7.896h-26.526
				c-4.437,0-8.093,3.469-8.319,7.896l-7.604,146.325h-1.758l7.614-146.419c0.282-5.358,4.7-9.55,10.067-9.55h26.526
				c5.358,0,9.785,4.192,10.058,9.55L330.18,416.238z"/>
			<rect x="172.189" y="254.702" style="fill:#407BFF;" width="154.59" height="8.501"/>
			<rect x="273.3" y="254.702" style="opacity:0.3;" width="53.479" height="8.501"/>
		</g>
		<g>
			<g>
				<path style="fill:#407BFF;" d="M285.681,252.649h-72.751c-0.565,0-1.027,0.462-1.027,1.027l0,0c0,0.565,0.462,1.027,1.027,1.027
					h72.751c0.565,0,1.027-0.462,1.027-1.027l0,0C286.707,253.111,286.245,252.649,285.681,252.649z"/>
				<path style="opacity:0.1;fill:#FFFFFF;" d="M285.681,252.649h-72.751c-0.565,0-1.027,0.462-1.027,1.027l0,0
					c0,0.565,0.462,1.027,1.027,1.027h72.751c0.565,0,1.027-0.462,1.027-1.027l0,0C286.707,253.111,286.245,252.649,285.681,252.649
					z"/>
			</g>
			<g>
				<path style="fill:#407BFF;" d="M267.386,254.702h-58.964c-1.065,0-2.15-0.871-2.412-1.936l-8.301-33.794
					c-0.262-1.065,0.396-1.936,1.461-1.936h58.964c1.065,0,2.15,0.871,2.412,1.936l8.301,33.794
					C269.108,253.831,268.451,254.702,267.386,254.702z"/>
				<path style="opacity:0.3;fill:#FFFFFF;" d="M267.386,254.702h-58.964c-1.065,0-2.15-0.871-2.412-1.936l-8.301-33.794
					c-0.262-1.065,0.396-1.936,1.461-1.936h58.964c1.065,0,2.15,0.871,2.412,1.936l8.301,33.794
					C269.108,253.831,268.451,254.702,267.386,254.702z"/>
			</g>
		</g>
		<g>
			<path style="fill:#FFFFFF;" d="M250,244.424c-0.031,0-0.064-0.005-0.095-0.016c-0.148-0.052-0.227-0.215-0.175-0.364
				c1.027-2.924,0.971-6.046-0.144-8.644c-0.078,0.14-0.164,0.271-0.257,0.395c-0.643,0.855-1.717,1.44-3.024,1.648
				c-1.064,0.169-2.085,0.069-2.95-0.29c-0.996-0.412-1.778-1.173-2.145-2.087c-0.403-1.009-0.26-2.179,0.368-2.98
				c1.434-1.833,4.358-1.409,5.916-0.398c0.914,0.593,1.556,1.474,2.008,2.266c0.03-0.155,0.054-0.316,0.069-0.481
				c0.123-1.308-0.274-2.449-1.184-3.392c-1.293-1.34-3.547-2.124-5.707-1.999c-0.751,0.043-1.474,0.184-2.149,0.419
				c-0.149,0.054-0.311-0.027-0.363-0.176c-0.052-0.149,0.026-0.312,0.176-0.363c0.725-0.252,1.5-0.404,2.304-0.45
				c2.348-0.129,4.748,0.718,6.151,2.173c1.016,1.053,1.479,2.382,1.341,3.843c-0.04,0.418-0.123,0.813-0.245,1.175
				c0.005,0.01,0.009,0.02,0.014,0.029c1.362,2.813,1.494,6.276,0.36,9.502C250.229,244.351,250.118,244.424,250,244.424z
				 M244.477,231.398c-0.942,0-1.861,0.29-2.449,1.041c-0.504,0.644-0.616,1.592-0.286,2.416c0.309,0.772,0.977,1.418,1.832,1.771
				c0.769,0.319,1.681,0.406,2.642,0.253c1.161-0.184,2.104-0.691,2.657-1.427c0.158-0.211,0.293-0.452,0.401-0.717
				c-0.425-0.838-1.081-1.912-2.09-2.567C246.496,231.721,245.474,231.398,244.477,231.398z"/>
			<polygon style="fill:#407BFF;" points="255.837,240.556 242.773,240.556 244.136,254.702 254.473,254.702 			"/>
			<path style="fill:#FFFFFF;" d="M249.101,229.684c-0.677,0-1.148-0.149-1.189-0.162c-0.102-0.033-0.176-0.121-0.193-0.226
				c-0.015-0.092-0.34-2.267,1.499-3.838c1.785-1.525,4.915-1.856,5.048-1.869c0.098-0.01,0.184,0.027,0.245,0.099
				c0.062,0.071,0.083,0.168,0.06,0.258c-0.034,0.128-0.848,3.169-2.634,4.694l0,0C250.948,229.483,249.886,229.684,249.101,229.684
				z M248.264,229.024c0.505,0.112,1.98,0.31,3.301-0.82l0,0c1.277-1.091,2.042-3.117,2.326-3.989
				c-0.905,0.145-3.026,0.585-4.303,1.676C248.266,227.021,248.231,228.51,248.264,229.024z"/>
			<path style="fill:#FFFFFF;" d="M239.016,236.835c-1.364,0-2.793-0.675-2.861-0.708c-0.055-0.026-0.093-0.078-0.102-0.137
				c-0.01-0.06,0.011-0.121,0.054-0.163c0.063-0.06,1.537-1.468,3.039-1.712c1.537-0.253,2.484,0.821,2.523,0.866
				c0.045,0.053,0.057,0.126,0.03,0.191c-0.022,0.056-0.574,1.369-2.121,1.62l0,0C239.394,236.821,239.205,236.835,239.016,236.835z
				 M239.548,236.609h0.005H239.548z M236.573,235.905c0.55,0.225,1.87,0.694,2.945,0.521c1.112-0.181,1.632-0.993,1.787-1.288
				c-0.24-0.231-0.995-0.837-2.103-0.658C238.13,234.654,237.023,235.518,236.573,235.905z"/>
		</g>
	</g>
</g>
<g id="Flower">
	<g>
		<path style="fill:#263238;" d="M103.684,391.952c-0.146,0-0.271-0.111-0.284-0.259c-2.325-24.4,1.92-89.524,6.884-105.58
			c0.045-0.151,0.21-0.236,0.356-0.189c0.151,0.047,0.235,0.206,0.188,0.357c-4.949,16.014-9.182,81.001-6.86,105.357
			c0.015,0.157-0.1,0.297-0.257,0.312C103.701,391.952,103.692,391.952,103.684,391.952z"/>
		<polygon style="fill:#407BFF;" points="114.667,371.376 91.667,371.376 94.667,416.238 111.667,416.238 		"/>
		<path style="fill:#263238;" d="M103.94,302.646c3.909,4.197,2.477,9.312,2.477,9.312s-5.204,1.065-9.113-3.132
			c-3.909-4.197-5.041-12.066-5.041-12.066S100.032,298.449,103.94,302.646z"/>
		<path style="fill:#263238;" d="M117.555,324.671c-6.339,3.85-12.442,0.696-12.442,0.696s0.015-6.869,6.354-10.719
			c6.339-3.85,16.602-3.222,16.602-3.222S123.894,320.821,117.555,324.671z"/>
		<path style="fill:#407BFF;" d="M116.333,285.056c0,2.117-1.716,3.833-3.833,3.833s-3.833-1.716-3.833-3.833
			c0-2.117,1.716-3.833,3.833-3.833S116.333,282.939,116.333,285.056z"/>
		<path style="fill:#263238;" d="M88.546,347.073c6.396,6.921,14.954,5.205,14.954,5.205s2.385-8.397-4.011-15.318
			c-6.396-6.921-19.152-9.746-19.152-9.746S82.149,340.152,88.546,347.073z"/>
	</g>
</g>
</svg>
