<?xml version="1.0" encoding="utf-8"?>
<!-- Generator: Adobe Illustrator 27.5.0, SVG Export Plug-In . SVG Version: 6.00 Build 0)  -->
<svg version="1.1" xmlns="http://www.w3.org/2000/svg" xmlns:xlink="http://www.w3.org/1999/xlink" x="0px" y="0px"
	 viewBox="0 0 500 500" style="enable-background:new 0 0 500 500;" xml:space="preserve">
<g id="BACKGROUND">
	<rect style="fill:#FFFFFF;" width="500" height="500"/>
</g>
<g id="OBJECTS">
	<g>
		<g>
			<path style="fill:#ACD9EA;" d="M396.1,258.513c0,2.031-1.652,3.684-3.683,3.684c-2.032,0-3.685-1.653-3.685-3.684
				c0-2.031,1.653-3.684,3.685-3.684C394.448,254.829,396.1,256.482,396.1,258.513z M394.275,258.513
				c0-1.025-0.833-1.858-1.857-1.858c-1.025,0-1.859,0.834-1.859,1.858c0,1.025,0.834,1.858,1.859,1.858
				C393.442,260.371,394.275,259.538,394.275,258.513z"/>
			<g>
				<path style="fill:#ACD9EA;" d="M405.327,131.593c-0.504,0-0.913,0.409-0.913,0.913v2.118c0,0.504,0.409,0.913,0.913,0.913
					c0.504,0,0.913-0.409,0.913-0.913v-2.118C406.24,132.002,405.831,131.593,405.327,131.593z"/>
				<path style="fill:#ACD9EA;" d="M402.938,129.47h-2.117c-0.504,0-0.913,0.409-0.913,0.913c0,0.504,0.409,0.913,0.913,0.913h2.117
					c0.504,0,0.913-0.409,0.913-0.913C403.851,129.879,403.442,129.47,402.938,129.47z"/>
				<path style="fill:#ACD9EA;" d="M405.327,125.083c-0.504,0-0.913,0.409-0.913,0.913v2.116c0,0.504,0.409,0.913,0.913,0.913
					c0.504,0,0.913-0.409,0.913-0.913v-2.116C406.24,125.492,405.831,125.083,405.327,125.083z"/>
				<path style="fill:#ACD9EA;" d="M409.833,129.324h-2.117c-0.504,0-0.913,0.409-0.913,0.913c0,0.504,0.409,0.913,0.913,0.913
					h2.117c0.504,0,0.913-0.409,0.913-0.913C410.746,129.733,410.337,129.324,409.833,129.324z"/>
			</g>
			<path style="fill:#ACD9EA;" d="M207.19,109.603c-0.504,0-0.913,0.409-0.913,0.913v2.117c0,0.504,0.409,0.913,0.913,0.913
				c0.504,0,0.913-0.409,0.913-0.913v-2.117C208.103,110.011,207.694,109.603,207.19,109.603z"/>
			<path style="fill:#ACD9EA;" d="M204.802,107.479h-2.118c-0.504,0-0.913,0.409-0.913,0.913c0,0.504,0.409,0.913,0.913,0.913h2.118
				c0.504,0,0.913-0.409,0.913-0.913C205.714,107.887,205.306,107.479,204.802,107.479z"/>
			<path style="fill:#ACD9EA;" d="M207.19,103.093c-0.504,0-0.913,0.409-0.913,0.913v2.116c0,0.504,0.409,0.913,0.913,0.913
				c0.504,0,0.913-0.409,0.913-0.913v-2.116C208.103,103.501,207.694,103.093,207.19,103.093z"/>
			<path style="fill:#ACD9EA;" d="M211.697,107.333h-2.118c-0.504,0-0.912,0.409-0.912,0.913c0,0.504,0.409,0.913,0.912,0.913h2.118
				c0.504,0,0.913-0.409,0.913-0.913C212.609,107.742,212.201,107.333,211.697,107.333z"/>
			<g>
				<path style="fill:#ACD9EA;" d="M86.091,301.182c-0.504,0-0.913,0.409-0.913,0.913v2.117c0,0.504,0.409,0.913,0.913,0.913
					c0.504,0,0.913-0.409,0.913-0.913v-2.117C87.003,301.591,86.595,301.182,86.091,301.182z"/>
				<path style="fill:#ACD9EA;" d="M83.702,299.059h-2.118c-0.504,0-0.913,0.409-0.913,0.913c0,0.504,0.409,0.913,0.913,0.913h2.118
					c0.504,0,0.913-0.409,0.913-0.913C84.615,299.467,84.206,299.059,83.702,299.059z"/>
				<path style="fill:#ACD9EA;" d="M86.091,294.672c-0.504,0-0.913,0.409-0.913,0.913v2.116c0,0.504,0.409,0.913,0.913,0.913
					c0.504,0,0.913-0.409,0.913-0.913v-2.116C87.003,295.081,86.595,294.672,86.091,294.672z"/>
				<path style="fill:#ACD9EA;" d="M90.597,298.913h-2.118c-0.504,0-0.912,0.409-0.912,0.913c0,0.504,0.409,0.913,0.912,0.913h2.118
					c0.504,0,0.913-0.409,0.913-0.913C91.51,299.322,91.101,298.913,90.597,298.913z"/>
			</g>
			<path style="fill:#ACD9EA;" d="M318.97,31.299h-20.863c-0.504,0-0.913,0.408-0.913,0.912c0,0.504,0.409,0.913,0.913,0.913h20.863
				c0.504,0,0.913-0.409,0.913-0.913C319.883,31.707,319.474,31.299,318.97,31.299z"/>
			<path style="fill:#ACD9EA;" d="M291.467,31.295h-4.077c-0.504,0-0.913,0.409-0.913,0.913c0,0.504,0.409,0.913,0.913,0.913h4.077
				c0.504,0,0.913-0.409,0.913-0.913C292.38,31.704,291.971,31.295,291.467,31.295z"/>
			<path style="fill:#ACD9EA;" d="M309.168,38.568c0,0.504-0.409,0.912-0.913,0.912h-2.61c-0.504,0-0.913-0.408-0.913-0.912
				s0.409-0.913,0.913-0.913h2.61C308.76,37.655,309.168,38.064,309.168,38.568z M301.995,38.568c0,0.504-0.409,0.912-0.913,0.912
				h-4.564c-0.504,0-0.913-0.408-0.913-0.912s0.409-0.913,0.913-0.913h4.564C301.586,37.655,301.995,38.064,301.995,38.568z
				 M292.868,38.568c0,0.504-0.409,0.912-0.912,0.912h-4.564c-0.504,0-0.913-0.408-0.913-0.912s0.409-0.913,0.913-0.913h4.564
				C292.46,37.655,292.868,38.064,292.868,38.568z"/>
			<g>
				<path style="fill:#ACD9EA;" d="M304.38,73.598c-0.504,0-0.913,0.408-0.913,0.913v2.118c0,0.504,0.409,0.913,0.913,0.913
					c0.504,0,0.912-0.409,0.912-0.913V74.51C305.293,74.006,304.884,73.598,304.38,73.598z"/>
				<path style="fill:#ACD9EA;" d="M301.992,71.474h-2.117c-0.504,0-0.913,0.408-0.913,0.913c0,0.504,0.408,0.913,0.913,0.913h2.117
					c0.504,0,0.913-0.409,0.913-0.913C302.904,71.883,302.496,71.474,301.992,71.474z"/>
				<path style="fill:#ACD9EA;" d="M304.38,67.088c-0.504,0-0.913,0.409-0.913,0.913v2.116c0,0.504,0.409,0.913,0.913,0.913
					c0.504,0,0.912-0.409,0.912-0.913V68C305.293,67.496,304.884,67.088,304.38,67.088z"/>
				<path style="fill:#ACD9EA;" d="M308.887,71.328h-2.117c-0.504,0-0.913,0.409-0.913,0.913c0,0.504,0.409,0.913,0.913,0.913h2.117
					c0.504,0,0.913-0.409,0.913-0.913C309.799,71.737,309.391,71.328,308.887,71.328z"/>
			</g>
			<path style="fill:#ACD9EA;" d="M121.11,137.667c0,1.78,1.443,3.223,3.223,3.223c1.78,0,3.223-1.443,3.223-3.223
				c0-1.78-1.443-3.223-3.223-3.223C122.553,134.444,121.11,135.887,121.11,137.667z"/>
			<g>
				<path style="fill:#ACD9EA;" d="M356.653,391.023h20.863c0.504,0,0.913-0.408,0.913-0.912c0-0.504-0.409-0.913-0.913-0.913
					h-20.863c-0.504,0-0.913,0.409-0.913,0.913C355.741,390.615,356.149,391.023,356.653,391.023z"/>
				<path style="fill:#ACD9EA;" d="M384.156,391.027h4.077c0.504,0,0.913-0.409,0.913-0.913c0-0.504-0.409-0.913-0.913-0.913h-4.077
					c-0.504,0-0.913,0.409-0.913,0.913C383.244,390.618,383.652,391.027,384.156,391.027z"/>
				<path style="fill:#ACD9EA;" d="M366.456,383.754c0-0.504,0.409-0.913,0.913-0.913h2.61c0.504,0,0.913,0.408,0.913,0.913
					c0,0.504-0.409,0.913-0.913,0.913h-2.61C366.864,384.667,366.456,384.258,366.456,383.754z M373.629,383.754
					c0-0.504,0.409-0.913,0.913-0.913h4.564c0.504,0,0.913,0.408,0.913,0.913c0,0.504-0.409,0.913-0.913,0.913h-4.564
					C374.037,384.667,373.629,384.258,373.629,383.754z M382.755,383.754c0-0.504,0.409-0.913,0.913-0.913h4.563
					c0.504,0,0.913,0.408,0.913,0.913c0,0.504-0.409,0.913-0.913,0.913h-4.563C383.164,384.667,382.755,384.258,382.755,383.754z"/>
			</g>
			<g>
				<path style="fill:#ACD9EA;" d="M399.354,214.881h20.863c0.504,0,0.912-0.408,0.912-0.912c0-0.504-0.409-0.913-0.912-0.913
					h-20.863c-0.504,0-0.913,0.409-0.913,0.913C398.441,214.472,398.85,214.881,399.354,214.881z"/>
				<path style="fill:#ACD9EA;" d="M426.857,214.885h4.077c0.504,0,0.913-0.409,0.913-0.913c0-0.504-0.409-0.913-0.913-0.913h-4.077
					c-0.504,0-0.913,0.409-0.913,0.913C425.944,214.476,426.353,214.885,426.857,214.885z"/>
				<path style="fill:#ACD9EA;" d="M409.156,207.612c0-0.504,0.409-0.913,0.913-0.913h2.61c0.504,0,0.913,0.409,0.913,0.913
					c0,0.504-0.409,0.913-0.913,0.913h-2.61C409.565,208.524,409.156,208.116,409.156,207.612z M416.329,207.612
					c0-0.504,0.409-0.913,0.913-0.913h4.564c0.504,0,0.913,0.409,0.913,0.913c0,0.504-0.409,0.913-0.913,0.913h-4.564
					C416.738,208.524,416.329,208.116,416.329,207.612z M425.456,207.612c0-0.504,0.409-0.913,0.912-0.913h4.563
					c0.504,0,0.913,0.409,0.913,0.913c0,0.504-0.409,0.913-0.913,0.913h-4.563C425.865,208.524,425.456,208.116,425.456,207.612z"/>
			</g>
			<g>
				<path style="fill:#ACD9EA;" d="M467.912,218.75c0.504,0,0.913-0.409,0.913-0.913v-2.118c0-0.504-0.409-0.913-0.913-0.913
					c-0.504,0-0.913,0.408-0.913,0.913v2.118C466.999,218.342,467.408,218.75,467.912,218.75z"/>
				<path style="fill:#ACD9EA;" d="M470.301,220.874h2.117c0.504,0,0.913-0.409,0.913-0.913c0-0.504-0.409-0.913-0.913-0.913h-2.117
					c-0.504,0-0.913,0.408-0.913,0.913C469.388,220.465,469.797,220.874,470.301,220.874z"/>
				<path style="fill:#ACD9EA;" d="M467.912,225.26c0.504,0,0.913-0.409,0.913-0.913v-2.116c0-0.504-0.409-0.913-0.913-0.913
					c-0.504,0-0.913,0.409-0.913,0.913v2.116C466.999,224.852,467.408,225.26,467.912,225.26z"/>
				<path style="fill:#ACD9EA;" d="M463.405,221.02h2.117c0.504,0,0.913-0.409,0.913-0.913c0-0.504-0.409-0.913-0.913-0.913h-2.117
					c-0.504,0-0.913,0.409-0.913,0.913C462.493,220.611,462.901,221.02,463.405,221.02z"/>
			</g>
			<path style="fill:#ACD9EA;" d="M80.709,196.206H59.846c-0.504,0-0.913,0.409-0.913,0.913c0,0.504,0.409,0.912,0.913,0.912h20.863
				c0.504,0,0.913-0.408,0.913-0.912C81.621,196.615,81.213,196.206,80.709,196.206z"/>
			<path style="fill:#ACD9EA;" d="M53.206,196.202h-4.077c-0.504,0-0.913,0.409-0.913,0.913c0,0.504,0.409,0.913,0.913,0.913h4.077
				c0.504,0,0.913-0.409,0.913-0.913C54.118,196.611,53.71,196.202,53.206,196.202z"/>
			<path style="fill:#ACD9EA;" d="M70.907,203.475c0,0.504-0.409,0.913-0.913,0.913h-2.61c-0.504,0-0.913-0.409-0.913-0.913
				c0-0.504,0.409-0.913,0.913-0.913h2.61C70.498,202.563,70.907,202.971,70.907,203.475z M63.734,203.475
				c0,0.504-0.409,0.913-0.913,0.913h-4.563c-0.504,0-0.913-0.409-0.913-0.913c0-0.504,0.409-0.913,0.913-0.913h4.563
				C63.325,202.563,63.734,202.971,63.734,203.475z M54.607,203.475c0,0.504-0.409,0.913-0.913,0.913h-4.563
				c-0.504,0-0.913-0.409-0.913-0.913c0-0.504,0.409-0.913,0.913-0.913h4.563C54.198,202.563,54.607,202.971,54.607,203.475z"/>
			<path style="fill:#ACD9EA;" d="M110.337,217.221c-0.504,0-0.913,0.409-0.913,0.913v2.118c0,0.504,0.409,0.913,0.913,0.913
				c0.504,0,0.913-0.408,0.913-0.913v-2.118C111.25,217.629,110.841,217.221,110.337,217.221z"/>
			<path style="fill:#ACD9EA;" d="M107.949,215.098h-2.117c-0.504,0-0.913,0.408-0.913,0.912c0,0.504,0.409,0.913,0.913,0.913h2.117
				c0.504,0,0.912-0.408,0.912-0.913C108.861,215.506,108.453,215.098,107.949,215.098z"/>
			<path style="fill:#ACD9EA;" d="M110.337,210.711c-0.504,0-0.913,0.409-0.913,0.913v2.116c0,0.504,0.409,0.913,0.913,0.913
				c0.504,0,0.913-0.409,0.913-0.913v-2.116C111.25,211.119,110.841,210.711,110.337,210.711z"/>
			<path style="fill:#ACD9EA;" d="M114.844,214.951h-2.117c-0.504,0-0.913,0.409-0.913,0.913c0,0.504,0.409,0.913,0.913,0.913h2.117
				c0.504,0,0.913-0.409,0.913-0.913C115.756,215.36,115.348,214.951,114.844,214.951z"/>
			<path style="fill:#3F8BC9;" d="M70.029,45.699c0,0,1.246,8.89-9.139,8.685c0,0,8.921,0.091,8.686,8.434
				c0,0,0.802-6.562,8.988-8.029C78.564,54.788,71.647,56.375,70.029,45.699z"/>
			<path style="fill:#3F8BC9;" d="M241.692,49.029c0,0,1.246,8.89-9.139,8.685c0,0,8.921,0.091,8.686,8.434
				c0,0,0.803-6.562,8.988-8.029C250.228,58.119,243.31,59.706,241.692,49.029z"/>
			<path style="fill:#ACD9EA;" d="M29.215,155.057c0,0,0.434,3.098-3.185,3.027c0,0,3.11,0.032,3.027,2.94
				c0,0,0.28-2.288,3.133-2.799C32.19,158.225,29.779,158.778,29.215,155.057z"/>
			<path style="fill:#ACD9EA;" d="M247.255,104.418c0,0,0.434,3.099-3.185,3.028c0,0,3.11,0.032,3.026,2.94
				c0,0,0.28-2.288,3.133-2.799C250.229,107.586,247.818,108.139,247.255,104.418z"/>
			<path style="fill:#ACD9EA;" d="M269.06,134.659c0,0,0.434,3.098-3.185,3.027c0,0,3.11,0.032,3.026,2.94
				c0,0,0.28-2.288,3.133-2.799C272.034,137.827,269.623,138.38,269.06,134.659z"/>
			<path style="fill:#ACD9EA;" d="M119.368,260.43c0,0,0.434,3.099-3.185,3.027c0,0,3.11,0.032,3.027,2.94
				c0,0,0.28-2.288,3.133-2.799C122.343,263.599,119.932,264.151,119.368,260.43z"/>
			<path style="fill:#ACD9EA;" d="M378.688,356.256c0,0,0.434,3.098-3.185,3.028c0,0,3.11,0.032,3.026,2.94
				c0,0,0.28-2.288,3.133-2.799C381.662,359.424,379.251,359.977,378.688,356.256z"/>
			<path style="fill:#ACD9EA;" d="M417.993,308.901c0,0,0.434,3.098-3.185,3.027c0,0,3.11,0.032,3.027,2.94
				c0,0,0.28-2.288,3.133-2.799C420.967,312.069,418.556,312.622,417.993,308.901z"/>
			<path style="fill:#ACD9EA;" d="M123.223,90.017c0,0,0.434,3.098-3.185,3.028c0,0,3.11,0.032,3.026,2.94
				c0,0,0.28-2.288,3.133-2.799C126.198,93.185,123.787,93.738,123.223,90.017z"/>
			<path style="fill:#ACD9EA;" d="M171.002,70.624h-20.258c-2.592,0-4.7-2.108-4.7-4.699c0-2.541,2.028-4.618,4.55-4.698
				c0.067-3.954,3.304-7.15,7.274-7.15c2.464,0,4.754,1.253,6.091,3.302c2.731-0.39,5.167,1.327,5.859,3.846h1.184
				c2.592,0,4.7,2.109,4.7,4.7C175.702,68.516,173.593,70.624,171.002,70.624z M150.744,62.616c-1.825,0-3.309,1.485-3.309,3.309
				s1.484,3.309,3.309,3.309h20.258c1.825,0,3.309-1.484,3.309-3.309s-1.485-3.309-3.309-3.309h-2.338l-0.093-0.586
				c-0.352-2.213-2.452-3.761-4.795-3.201l-0.512,0.122l-0.257-0.459c-1.04-1.865-3.01-3.023-5.14-3.023
				c-3.245,0-5.884,2.639-5.884,5.884c0,0.172,0.012,0.341,0.026,0.509l0.065,0.755H150.744z"/>
			<g>
				<path style="fill:#ACD9EA;" d="M438.031,273.316h20.863c0.504,0,0.913-0.408,0.913-0.913c0-0.504-0.409-0.913-0.913-0.913
					h-20.863c-0.504,0-0.913,0.409-0.913,0.913C437.118,272.907,437.527,273.316,438.031,273.316z"/>
				<path style="fill:#ACD9EA;" d="M427.314,273.319h4.077c0.504,0,0.913-0.409,0.913-0.913s-0.409-0.913-0.913-0.913h-4.077
					c-0.504,0-0.913,0.408-0.913,0.913S426.81,273.319,427.314,273.319z"/>
			</g>
			<g>
				<path style="fill:#ACD9EA;" d="M374.805,103.532h20.863c0.504,0,0.913-0.409,0.913-0.913c0-0.504-0.409-0.913-0.913-0.913
					h-20.863c-0.504,0-0.913,0.409-0.913,0.913C373.892,103.123,374.301,103.532,374.805,103.532z"/>
				<path style="fill:#ACD9EA;" d="M364.088,103.535h4.077c0.504,0,0.913-0.409,0.913-0.913c0-0.504-0.409-0.912-0.913-0.912h-4.077
					c-0.504,0-0.913,0.408-0.913,0.912C363.175,103.127,363.584,103.535,364.088,103.535z"/>
			</g>
			<path style="fill:#ACD9EA;" d="M460.747,370.322h-20.258c-2.592,0-4.7-2.108-4.7-4.699c0-2.541,2.027-4.618,4.55-4.698
				c0.067-3.954,3.304-7.15,7.274-7.15c2.464,0,4.754,1.253,6.091,3.302c2.731-0.39,5.167,1.327,5.858,3.846h1.184
				c2.592,0,4.7,2.109,4.7,4.7S463.339,370.322,460.747,370.322z M440.489,362.313c-1.825,0-3.309,1.485-3.309,3.309
				s1.484,3.309,3.309,3.309h20.258c1.825,0,3.309-1.484,3.309-3.309s-1.485-3.309-3.309-3.309h-2.338l-0.093-0.586
				c-0.352-2.213-2.452-3.761-4.795-3.201l-0.512,0.122l-0.257-0.46c-1.04-1.865-3.01-3.023-5.14-3.023
				c-3.245,0-5.884,2.639-5.884,5.884c0,0.172,0.012,0.341,0.026,0.509l0.065,0.755H440.489z"/>
			<path style="fill:#ACD9EA;" d="M379.969,301.135h-20.258c-2.591,0-4.7-2.108-4.7-4.699c0-2.542,2.028-4.618,4.55-4.698
				c0.067-3.954,3.304-7.15,7.274-7.15c2.464,0,4.754,1.253,6.092,3.302c2.729-0.389,5.167,1.327,5.858,3.846h1.185
				c2.591,0,4.7,2.109,4.7,4.7C384.669,299.027,382.56,301.135,379.969,301.135z M359.711,293.127c-1.825,0-3.309,1.485-3.309,3.309
				s1.484,3.309,3.309,3.309h20.258c1.825,0,3.309-1.484,3.309-3.309s-1.484-3.309-3.309-3.309h-2.338l-0.093-0.586
				c-0.352-2.213-2.454-3.758-4.795-3.201l-0.512,0.122l-0.257-0.459c-1.041-1.866-3.01-3.024-5.14-3.024
				c-3.245,0-5.884,2.639-5.884,5.884c0,0.172,0.012,0.341,0.026,0.509l0.065,0.755H359.711z"/>
			<path style="fill:#ACD9EA;" d="M85.939,123.956H65.681c-2.591,0-4.7-2.109-4.7-4.7c0-2.542,2.028-4.618,4.55-4.698
				c0.067-3.954,3.304-7.15,7.273-7.15c2.464,0,4.754,1.253,6.092,3.302c2.742-0.392,5.167,1.327,5.858,3.845h1.185
				c2.591,0,4.7,2.109,4.7,4.7S88.531,123.956,85.939,123.956z M65.681,115.946c-1.825,0-3.309,1.485-3.309,3.309
				s1.484,3.309,3.309,3.309h20.258c1.825,0,3.309-1.485,3.309-3.309s-1.484-3.309-3.309-3.309h-2.338l-0.093-0.586
				c-0.352-2.212-2.432-3.762-4.795-3.201l-0.512,0.122l-0.257-0.459c-1.041-1.865-3.01-3.024-5.14-3.024
				c-3.244,0-5.884,2.639-5.884,5.884c0,0.171,0.012,0.341,0.026,0.509l0.065,0.755H65.681z"/>
			<path style="fill:#3F8BC9;" d="M131.568,393.257c0,0,1.246,8.89-9.139,8.685c0,0,8.92,0.091,8.686,8.434
				c0,0,0.802-6.562,8.988-8.029C140.103,402.347,133.186,403.934,131.568,393.257z"/>
			<path style="fill:#3F8BC9;" d="M38.331,264.132c0,0,1.246,8.89-9.139,8.685c0,0,8.92,0.091,8.686,8.434
				c0,0,0.802-6.562,8.988-8.029C46.866,273.222,39.949,274.809,38.331,264.132z"/>
			<path style="fill:#3F8BC9;" d="M465.435,315.323c0,0,1.246,8.89-9.139,8.685c0,0,8.921,0.091,8.686,8.434
				c0,0,0.802-6.562,8.988-8.029C473.97,324.413,467.052,326,465.435,315.323z"/>
			<path style="fill:#3F8BC9;" d="M455.326,145.46c0,0,1.246,8.89-9.139,8.685c0,0,8.921,0.091,8.686,8.434
				c0,0,0.803-6.562,8.988-8.029C463.862,154.55,456.944,156.137,455.326,145.46z"/>
			<path style="fill:#ACD9EA;" d="M76.93,340.677c0,0,0.434,3.099-3.185,3.028c0,0,3.11,0.032,3.026,2.94
				c0,0,0.28-2.288,3.133-2.799C79.905,343.845,77.493,344.398,76.93,340.677z"/>
			<path style="fill:#ACD9EA;" d="M63.491,398.157H43.233c-2.592,0-4.7-2.108-4.7-4.699c0-2.541,2.028-4.618,4.55-4.698
				c0.067-3.954,3.304-7.15,7.274-7.15c2.464,0,4.754,1.253,6.091,3.302c2.73-0.39,5.167,1.327,5.859,3.846h1.184
				c2.592,0,4.7,2.109,4.7,4.7C68.191,396.048,66.083,398.157,63.491,398.157z M43.233,390.148c-1.825,0-3.309,1.485-3.309,3.309
				c0,1.825,1.485,3.309,3.309,3.309h20.258c1.825,0,3.309-1.484,3.309-3.309c0-1.825-1.484-3.309-3.309-3.309h-2.338l-0.093-0.586
				c-0.352-2.213-2.452-3.764-4.795-3.201l-0.512,0.122l-0.257-0.459c-1.04-1.865-3.01-3.023-5.14-3.023
				c-3.245,0-5.884,2.639-5.884,5.884c0,0.172,0.012,0.341,0.026,0.509l0.065,0.755H43.233z"/>
			<path style="fill:#ACD9EA;" d="M396.1,44.637c0,2.031-1.652,3.684-3.683,3.684c-2.032,0-3.685-1.653-3.685-3.684
				c0-2.031,1.653-3.684,3.685-3.684C394.448,40.953,396.1,42.606,396.1,44.637z M394.275,44.637c0-1.025-0.833-1.858-1.857-1.858
				c-1.025,0-1.859,0.834-1.859,1.858s0.834,1.858,1.859,1.858C393.442,46.495,394.275,45.662,394.275,44.637z"/>
			<path style="fill:#ACD9EA;" d="M295.478,176.266c0,2.031-1.652,3.684-3.682,3.684c-2.032,0-3.685-1.653-3.685-3.684
				c0-2.031,1.653-3.684,3.685-3.684C293.826,172.583,295.478,174.235,295.478,176.266z M293.652,176.266
				c0-1.025-0.833-1.858-1.857-1.858c-1.025,0-1.859,0.834-1.859,1.858c0,1.025,0.834,1.858,1.859,1.858
				C292.819,178.125,293.652,177.291,293.652,176.266z"/>
			<path style="fill:#ACD9EA;" d="M447.75,80.657h-20.258c-2.592,0-4.7-2.108-4.7-4.7c0-2.541,2.027-4.618,4.55-4.698
				c0.067-3.954,3.304-7.15,7.274-7.15c2.464,0,4.754,1.253,6.091,3.302c2.73-0.39,5.167,1.327,5.859,3.846h1.184
				c2.592,0,4.7,2.109,4.7,4.7C452.451,78.549,450.342,80.657,447.75,80.657z M427.492,72.648c-1.825,0-3.309,1.485-3.309,3.309
				c0,1.825,1.485,3.309,3.309,3.309h20.258c1.825,0,3.309-1.484,3.309-3.309c0-1.825-1.484-3.309-3.309-3.309h-2.338l-0.093-0.586
				c-0.352-2.213-2.452-3.764-4.795-3.201l-0.512,0.122l-0.257-0.459c-1.04-1.865-3.01-3.023-5.14-3.023
				c-3.244,0-5.884,2.639-5.884,5.884c0,0.172,0.012,0.341,0.026,0.509l0.065,0.755H427.492z"/>
		</g>
		<g>
			<ellipse style="fill:#EAF4FE;" cx="243.067" cy="454.577" rx="137.975" ry="14.128"/>
			<g>
				<g>
					<g>
						<g>
							<g>
								<path style="fill:#E57F8B;" d="M314.956,177.234l-15.855,39.34c-2.69,6.675,0.54,14.267,7.215,16.958l0,0
									c6.675,2.69,14.267-0.54,16.958-7.215l15.855-39.34c2.69-6.675-0.54-14.268-7.215-16.958l0,0
									C325.238,167.328,317.646,170.559,314.956,177.234z"/>
								<g>
									<path style="fill:#E57F8B;" d="M323.168,161.849c-3.598,0.029-6.491,2.97-6.462,6.568c0.029,3.598,2.97,6.491,6.568,6.462
										c3.598-0.029,6.491-2.97,6.462-6.568C329.707,164.713,326.766,161.82,323.168,161.849z"/>
								</g>
								<g>
									<path style="fill:#D36C7B;" d="M347.977,176.83l7.013-7.742c1.535-1.867,1.266-4.624-0.6-6.159l0,0
										c-1.867-1.535-4.624-1.266-6.16,0.6l-7.013,7.742c-1.535,1.867-1.266,4.624,0.6,6.159l0,0
										C343.684,178.965,346.442,178.697,347.977,176.83z"/>
									<path style="fill:#D36C7B;" d="M334.728,179.745l10.363-1.312c2.38-0.418,3.972-2.686,3.554-5.066l0,0
										c-0.418-2.38-2.686-3.972-5.066-3.554l-10.363,1.312c-2.38,0.418-3.972,2.686-3.554,5.066v0
										C330.079,178.572,332.348,180.163,334.728,179.745z"/>
								</g>
								<path style="fill:#E57F8B;" d="M334.501,173.719l18.785-5.141c2.574-0.609,4.166-3.19,3.556-5.763l0,0
									c-0.609-2.573-3.19-4.166-5.763-3.556l-18.786,5.141c-2.573,0.609-4.166,3.19-3.556,5.763l0,0
									C329.348,172.736,331.928,174.328,334.501,173.719z"/>
								<path style="fill:#E57F8B;" d="M353.09,156.106l-4.279,4.364c-1.905,1.835-1.961,4.866-0.126,6.771l0,0
									c1.835,1.905,4.866,1.961,6.771,0.126l4.279-4.363c1.905-1.835,1.961-4.866,0.126-6.771l0,0
									C358.026,154.328,354.995,154.271,353.09,156.106z"/>
								
									<ellipse transform="matrix(0.0693 -0.9976 0.9976 0.0693 131.8311 492.9326)" style="fill:#E57F8B;" cx="330.095" cy="175.813" rx="14.781" ry="14.781"/>
								<path style="fill:#102752;" d="M343.92,152.048h-17.581c-1.508,0-2.73-1.222-2.73-2.73v-23.054h23.042v23.054
									C346.65,150.826,345.428,152.048,343.92,152.048z"/>
								<path style="fill:#102752;" d="M351.187,129.531h-5.041c-0.874,0-1.582,0.708-1.582,1.582v9.931
									c0,0.874,0.708,1.582,1.582,1.582h5.041c3.616,0,6.548-2.932,6.548-6.548C357.735,132.462,354.803,129.531,351.187,129.531z
									 M350.549,138.643h-1.975c-0.342,0-0.62-0.277-0.62-0.62v-3.891c0-0.342,0.277-0.62,0.62-0.62h1.975
									c1.417,0,2.565,1.148,2.565,2.565C353.114,137.495,351.966,138.643,350.549,138.643z"/>
								<path style="fill:#EAF4FE;" d="M342.091,74.68c-0.163,1.344-0.455,2.56-0.787,3.735c-0.326,1.182-0.721,2.293-1.135,3.387
									c-0.21,0.544-0.443,1.064-0.663,1.598c-0.109,0.268-0.23,0.524-0.349,0.782l-0.178,0.387
									c-0.065,0.131-0.129,0.258-0.136,0.342c-0.181,0.756-0.334,1.419-0.363,2.076c-0.111,1.282,0.027,2.39,0.254,3.378
									c0.205,0.99,0.554,1.847,0.938,2.651c0.18,0.412,0.419,0.791,0.654,1.195c0.069,0.095,0.134,0.193,0.198,0.296l0.093,0.157
									l0.256,0.306c0.337,0.416,0.686,0.821,1.01,1.251l1.288,1.668c0.579,0.783,1.069,1.636,1.458,2.522
									c0.783,1.77,1.168,3.674,1.129,5.518c-0.032,3.693-1.825,7.12-4.429,9.031c-0.321,0.243-0.655,0.458-1.003,0.646
									l-0.508,0.282c-0.161,0.086-0.285,0.108-0.434,0.161c-0.574,0.18-1.131,0.376-1.73,0.531
									c-1.177,0.33-2.395,0.62-3.743,0.779c0.159-1.348,0.449-2.566,0.779-3.743c0.155-0.599,0.351-1.156,0.531-1.73
									c0.037-0.138,0.108-0.298,0.127-0.409l0.028-0.311c0.024-0.196,0.025-0.394,0.006-0.591c-0.055-1.51-0.732-2.52-1.354-3.05
									c-0.144-0.118-0.597-0.367-1.058-0.609c-0.858-0.45-1.665-0.989-2.418-1.6c-0.004-0.003-0.008-0.007-0.012-0.01
									l-0.309-0.259l-0.443-0.436l-0.874-0.89c-0.546-0.628-1.061-1.295-1.542-1.981c-0.431-0.72-0.904-1.421-1.243-2.193
									c-3.006-6.064-2.052-13.743,2.167-18.51c1-1.213,2.225-2.202,3.49-3.005c0.168-0.118,0.293-0.179,0.417-0.235l0.387-0.179
									c0.258-0.119,0.514-0.24,0.782-0.349c0.533-0.22,1.054-0.453,1.598-0.663c1.093-0.414,2.205-0.81,3.387-1.135
									C339.531,75.135,340.746,74.843,342.091,74.68z"/>
								<path style="fill:#BFCFDD;" d="M378.69,158.706h-78.719c-3.419,0-6.191-2.772-6.191-6.191l0,0h91.102l0,0
									C384.882,155.934,382.11,158.706,378.69,158.706z"/>
								<path style="fill:#EAF4FE;" d="M393.438,155.077H285.224c-1.002,0-1.815-0.813-1.815-1.815l0,0
									c0-1.002,0.813-1.815,1.815-1.815h108.214c1.002,0,1.815,0.813,1.815,1.815l0,0
									C395.253,154.264,394.44,155.077,393.438,155.077z"/>
								<path style="fill:#E57F8B;" d="M319.976,167.105l-2.667-6.598c-0.928-2.201,0.105-4.738,2.306-5.666v0
									c2.201-0.928,4.738,0.105,5.666,2.306l2.667,6.598c0.928,2.201-0.105,4.738-2.306,5.666l0,0
									C323.44,170.338,320.904,169.306,319.976,167.105z"/>
								<path style="fill:#1C3763;" d="M345.136,149.173h-20.013c-1.747,0-3.164-1.417-3.164-3.164v-19.862
									c0-1.748,1.417-3.164,3.164-3.164h20.013c1.747,0,3.164,1.417,3.164,3.164v19.862
									C348.3,147.757,346.883,149.173,345.136,149.173z"/>
							</g>
							<g>
								<path style="fill:#E57F8B;" d="M270.587,256.104c0.143,0.157,0.277,0.321,0.418,0.48c2.345-0.617,4.804-0.659,7.165-0.126
									c2.58,0.376,5.057,1.542,7.117,3.239c0.893,0.804,1.763,1.61,2.627,2.418c0.133-0.122,0.272-0.233,0.4-0.362l29.992-29.992
									c5.089-5.089,5.089-13.34,0-18.429v0c-5.089-5.089-13.34-5.089-18.429,0l-29.992,29.992
									c-2.264,2.264-3.515,5.155-3.764,8.115C267.743,252.87,269.24,254.432,270.587,256.104z"/>
								<path style="fill:#AAD5F4;" d="M270.587,256.104c0.143,0.157,0.277,0.321,0.418,0.48c2.345-0.617,4.804-0.659,7.165-0.126
									c2.58,0.376,5.057,1.542,7.117,3.239c1.404,1.265,2.758,2.534,4.108,3.81l12.521-12.521c9.052-9.052,9.052-23.728,0-32.78
									l-1.564-1.564c-1.828-1.829-4.793-1.829-6.621,0l-31.296,31.296c-0.127,0.127-0.236,0.265-0.357,0.395
									C265.296,250.496,268.182,253.12,270.587,256.104z"/>
							</g>
						</g>
						<g>
							<g>
								<path style="fill:#E57F8B;" d="M134.62,187.636l17.896,38.455c3.036,6.525,10.788,9.353,17.313,6.316l0,0
									c6.525-3.036,9.353-10.787,6.317-17.313l-17.896-38.455c-3.036-6.525-10.788-9.353-17.313-6.316l0,0
									C134.412,173.36,131.584,181.111,134.62,187.636z"/>
								<g>
									<path style="fill:#E57F8B;" d="M165.441,174.682c2.222,2.83,1.73,6.926-1.1,9.148c-2.83,2.222-6.926,1.73-9.148-1.1
										c-2.222-2.83-1.73-6.926,1.1-9.148C159.122,171.359,163.218,171.852,165.441,174.682z"/>
								</g>
								<g>
									<path style="fill:#D36C7B;" d="M138.253,164.644l1.674-10.311c0.501-2.364,2.823-3.875,5.188-3.375l0,0
										c2.364,0.501,3.875,2.823,3.375,5.188l-1.674,10.311c-0.501,2.364-2.823,3.875-5.188,3.375l0,0
										C139.263,169.331,137.752,167.009,138.253,164.644z"/>
									<path style="fill:#D36C7B;" d="M144.242,176.816l-5.442-8.917c-1.159-2.121-0.38-4.78,1.741-5.939l0,0
										c2.121-1.159,4.779-0.38,5.939,1.741l5.442,8.917c1.159,2.121,0.38,4.78-1.741,5.939l0,0
										C148.06,179.717,145.402,178.937,144.242,176.816z"/>
								</g>
								<g>
									<path style="fill:#C4E1F5;" d="M143.391,185.755c0.363-0.258,0.714-0.573,1.046-0.954c2.61-2.997,0.67-33.139,0.807-45.489
										c0.139-12.571,0.218-19.726,0.258-23.373c0.04-3.665,1.452-7.425,4.76-6.35c3.165,1.029,40.629,2.78,40.452,6.922
										c-0.154,3.62-0.689,45.545-0.955,52.548C189.482,173.818,167.789,173.055,143.391,185.755z"/>
									<path style="fill:#EAF4FE;" d="M191.155,119.34l-34.766-0.797c-0.476-0.011-0.911-0.589-0.937-1.176
										c-0.205-4.64-2.255-6.822-5.19-7.777l40.168,3.336c0,0,1.505,1.084,2.306,3.24c0.784,2.109,0.09,3.273,0.09,3.273
										L191.155,119.34z"/>
								</g>
								<path style="fill:#E57F8B;" d="M149.093,173.233l-7.706-17.887c-1.13-2.391-0.107-5.245,2.284-6.375h0
									c2.391-1.13,5.245-0.107,6.375,2.284l7.705,17.887c1.13,2.391,0.107,5.245-2.284,6.375l0,0
									C153.077,176.647,150.223,175.624,149.093,173.233z"/>
								<path style="fill:#E57F8B;" d="M151.256,147.717l-0.739,6.067c-0.245,2.633-2.579,4.569-5.212,4.324l0,0
									c-2.633-0.245-4.569-2.579-4.324-5.212l0.739-6.067c0.245-2.633,2.579-4.569,5.212-4.324l0,0
									C149.565,142.75,151.501,145.083,151.256,147.717z"/>
								<path style="fill:#E57F8B;" d="M158.429,190.265c6.783-4.542,8.601-13.722,4.059-20.506
									c-4.542-6.784-13.722-8.601-20.506-4.059c-6.784,4.542-8.601,13.722-4.059,20.506
									C142.465,192.99,151.645,194.807,158.429,190.265z"/>
								<path style="fill:#E57F8B;" d="M163.325,180.456l6.82-2.033c2.299-0.649,3.637-3.038,2.988-5.338l0,0
									c-0.649-2.299-3.038-3.637-5.337-2.988l-6.82,2.034c-2.299,0.649-3.637,3.038-2.988,5.338l0,0
									C158.637,179.766,161.026,181.104,163.325,180.456z"/>
								<g>
									
										<line style="fill:none;stroke:#1C3763;stroke-width:1.769;stroke-linecap:round;stroke-linejoin:round;stroke-miterlimit:10;" x1="184.118" y1="130.102" x2="152.263" y2="129.161"/>
									
										<line style="fill:none;stroke:#1C3763;stroke-width:1.769;stroke-linecap:round;stroke-linejoin:round;stroke-miterlimit:10;" x1="185.746" y1="136.242" x2="151.936" y2="135.568"/>
									
										<line style="fill:none;stroke:#1C3763;stroke-width:1.769;stroke-linecap:round;stroke-linejoin:round;stroke-miterlimit:10;" x1="185.359" y1="142.464" x2="151.73" y2="143.097"/>
									
										<line style="fill:none;stroke:#1C3763;stroke-width:1.769;stroke-linecap:round;stroke-linejoin:round;stroke-miterlimit:10;" x1="185.192" y1="149.331" x2="170.582" y2="150.514"/>
								</g>
							</g>
							<g>
								<path style="fill:#E57F8B;" d="M192.733,262.219l0.854-0.808c0.97-0.887,1.927-1.871,3.072-2.651
									c2.268-1.535,4.919-2.473,7.593-2.578c1.487-0.17,2.993-0.124,4.468,0.149c0.172-0.192,0.348-0.379,0.523-0.568
									c-0.001,0.001-0.001,0.001-0.002,0.002c1.958-2.375,4.226-4.512,6.719-6.366c-0.765-1.706-1.887-3.28-3.407-4.572
									l-38.613-32.299c-5.482-4.663-13.706-3.999-18.369,1.483l0,0c-4.663,5.482-3.999,13.706,1.483,18.369L192.733,262.219z"/>
								<path style="fill:#AAD5F4;" d="M174.938,250.225l16.307,13.402l2.342-2.216c0.97-0.887,1.927-1.871,3.072-2.651
									c2.268-1.535,4.919-2.473,7.593-2.578c1.487-0.17,2.993-0.124,4.468,0.149c0.172-0.192,0.348-0.379,0.523-0.568
									c-0.001,0.001-0.001,0.001-0.002,0.002c2.67-3.239,5.909-6.047,9.526-8.273l-38.434-32.158
									c-1.969-1.675-4.924-1.437-6.6,0.533l-1.433,1.685C164.006,227.301,165.187,241.93,174.938,250.225z"/>
							</g>
						</g>
					</g>
					<g>
						<g>
							<g>
								<path style="fill:#C4E1F5;" d="M198.077,305.74v-21.598c0-23.017,18.659-41.676,41.676-41.676h0
									c23.017,0,41.676,18.659,41.676,41.676v21.598c0,9.459-7.668,17.127-17.127,17.127h-49.098
									C205.745,322.866,198.077,315.198,198.077,305.74z"/>
								<g>
									<path style="fill:#FFFFFF;" d="M270.588,256.105c-4.121-4.02-8.94-7.212-14.147-9.407
										c-5.214-2.174-10.827-3.345-16.457-3.342c-5.627-0.046-11.253,1.045-16.49,3.165c-5.23,2.137-10.084,5.274-14.253,9.244
										c3.662-4.442,8.385-8.088,13.704-10.511c5.306-2.458,11.184-3.686,17.049-3.666c5.866,0.03,11.729,1.341,17.008,3.854
										C262.293,247.926,266.975,251.622,270.588,256.105z"/>
								</g>
							</g>
							<g>
								<g>
									<path style="fill:#FC9AA1;" d="M209.152,286.356l-29.992,29.992c-5.089,5.089-13.34,5.089-18.429,0l0,0
										c-5.089-5.089-5.089-13.34,0-18.429l29.992-29.992c5.089-5.089,13.34-5.089,18.429,0l0,0
										C214.24,273.016,214.24,281.267,209.152,286.356z"/>
									<path style="fill:#FC9AA1;" d="M200.544,339.114l-36.908-20.902c-6.262-3.547-8.464-11.498-4.917-17.761l0,0
										c3.547-6.262,11.498-8.464,17.761-4.917l36.908,20.902c6.262,3.547,8.464,11.498,4.917,17.761l0,0
										C214.759,340.46,206.807,342.661,200.544,339.114z"/>
									<path style="fill:#C4E1F5;" d="M164.041,291.773l31.296-31.296c5.872-5.872,15.392-5.872,21.264,0l0,0
										c5.872,5.872,5.872,15.392,0,21.264l-18.217,18.217c-9.052,9.052-23.728,9.052-32.78,0l-1.564-1.564
										C162.213,296.566,162.213,293.602,164.041,291.773z"/>
									<g>
										<path style="fill:#FFFFFF;" d="M204.253,256.182c-2.618,0.5-5.092,1.586-7.074,3.266
											c-1.002,0.806-1.851,1.799-2.775,2.779l-2.746,2.903c-3.666,3.866-7.405,7.658-11.159,11.436
											c-3.777,3.755-7.569,7.494-11.435,11.161l-2.902,2.746l-1.463,1.361c-0.509,0.455-0.876,0.856-1.171,1.408
											c-0.584,1.055-0.713,2.404-0.263,3.591c0.217,0.599,0.574,1.132,1.022,1.618l1.318,1.507l-1.507-1.318
											c-0.506-0.442-0.962-0.992-1.264-1.623c-0.626-1.257-0.661-2.812-0.088-4.152c0.267-0.663,0.781-1.288,1.234-1.75
											l1.362-1.463l2.746-2.903c3.666-3.865,7.406-7.658,11.161-11.435c3.778-3.753,7.571-7.493,11.437-11.159l2.902-2.746
											c0.97-0.887,1.927-1.871,3.072-2.651C198.928,257.224,201.58,256.287,204.253,256.182z"/>
									</g>
								</g>
								<path style="fill:#E57F8B;" d="M215.157,316.436l-26.714-15.129c0.022,0.197,0.039,0.394,0.067,0.592l5.581,30.305
									c0.125,0.883,0.327,1.737,0.566,2.574l7.657,4.336c6.262,3.547,14.214,1.345,17.761-4.917
									C223.621,327.935,221.419,319.983,215.157,316.436z"/>
							</g>
							<g>
								<path style="fill:#FC9AA1;" d="M271.663,286.356l29.992,29.992c5.089,5.089,13.34,5.089,18.429,0h0
									c5.089-5.089,5.089-13.34,0-18.429l-29.992-29.992c-5.089-5.089-13.34-5.089-18.429,0l0,0
									C266.574,273.016,266.574,281.267,271.663,286.356z"/>
								<path style="fill:#FC9AA1;" d="M280.27,339.114l36.908-20.902c6.262-3.547,8.464-11.498,4.917-17.761l0,0
									c-3.547-6.262-11.498-8.464-17.761-4.917l-36.908,20.902c-6.262,3.547-8.464,11.498-4.917,17.761h0
									C266.056,340.46,274.007,342.661,280.27,339.114z"/>
								<path style="fill:#E57F8B;" d="M287.552,332.204l5.581-30.305c0.052-0.366,0.092-0.73,0.123-1.093l-27.599,15.63
									c-6.262,3.547-8.464,11.498-4.917,17.761c3.547,6.263,11.498,8.464,17.761,4.917l8.645-4.896
									C287.313,333.559,287.456,332.89,287.552,332.204z"/>
								<path style="fill:#C4E1F5;" d="M316.773,291.773l-31.296-31.296c-5.872-5.872-15.392-5.872-21.264,0h0
									c-5.872,5.872-5.872,15.392,0,21.264l18.217,18.217c9.052,9.052,23.728,9.052,32.78,0l1.564-1.564
									C318.602,296.566,318.602,293.602,316.773,291.773z"/>
								<g>
									<path style="fill:#FFFFFF;" d="M315.21,299.958l1.282-1.47c0.438-0.476,0.796-0.985,1.018-1.566
										c0.454-1.148,0.394-2.46-0.142-3.513c-0.263-0.537-0.613-0.982-1.069-1.396l-1.427-1.326l-2.83-2.674
										c-3.769-3.57-7.465-7.213-11.147-10.87c-3.659-3.68-7.302-7.377-10.872-11.146l-5.32-5.661
										c-1.762-1.818-4.05-3.113-6.532-3.879c2.58,0.376,5.057,1.542,7.117,3.239c1.958,1.765,3.823,3.531,5.711,5.324
										c3.769,3.57,7.465,7.213,11.146,10.872c3.657,3.682,7.3,7.378,10.87,11.148l2.674,2.83l1.326,1.426
										c0.47,0.494,0.902,1.111,1.146,1.771c0.51,1.329,0.403,2.835-0.225,4.045c-0.305,0.608-0.763,1.135-1.255,1.561
										L315.21,299.958z"/>
								</g>
							</g>
							<path style="fill:#AAD5F4;" d="M275.981,280.116h-70.319c-11.617,0-20.546,10.28-18.921,21.783l0.769,4.176
								c3.854-0.942,7.515-2.88,10.567-5.824v3.719c0,9.459,7.668,17.127,17.127,17.127h49.098c9.459,0,17.127-7.668,17.127-17.127
								v-5.013l1.001,1.001c3.318,3.318,7.394,5.415,11.67,6.301l0.803-4.36C296.528,290.396,287.598,280.116,275.981,280.116z"/>
						</g>
						<g>
							<path style="fill:#081C3D;" d="M190.869,184.343c-2.592-18.27,11.909-35.413,32.387-38.285l0,0
								c20.473-2.871,39.172,9.615,41.764,27.886l2.04,14.38c4.81,19.492-2.602,40.908-28.651,40.709l-4.061,1.844
								c-19.847,8.56-38.675-12.335-41.438-32.154L190.869,184.343z"/>
							<path style="fill:#081C3D;" d="M266.864,181.601c1.93,13.683-12.349,27.013-31.893,29.77l0,0
								c-19.539,2.756-36.945-6.104-38.875-19.787l-1.519-10.769c-4.003-14.539,7.136-29.163,31.884-29.77l0,0
								c19.11-7.022,36.835,4.943,38.883,19.787L266.864,181.601z"/>
							<g>
								<g>
									<g>
										<path style="fill:#FC9AA1;" d="M220.208,223.171l-6.85,0.975c-5.216,0.868-10.149-2.656-11.017-7.873l0,0
											c-0.868-5.216,2.656-10.149,7.873-11.017l6.85-0.975L220.208,223.171z"/>
										<path style="fill:#E57F8B;" d="M215.89,218.65l-3.132,0.571c-2.401,0.4-4.672-1.223-5.072-3.624l0,0
											c-0.4-2.401,1.223-4.672,3.624-5.072l3.132-0.571L215.89,218.65z"/>
									</g>
								</g>
							</g>
							<g>
								<path style="fill:#FC9AA1;" d="M249.145,243.547c0.925,6.967-3.97,13.362-10.937,14.288l0,0
									c-6.965,0.925-13.361-3.971-14.286-10.938l-4.314-33.101c-0.925-6.965,3.971-13.36,10.936-14.285l0,0
									c6.967-0.925,13.362,3.971,14.287,10.936L249.145,243.547z"/>
							</g>
							<path style="fill:#E57F8B;" d="M244.831,210.447c-0.925-6.965-7.319-11.861-14.286-10.936
								c-6.965,0.925-11.861,7.32-10.936,14.285l2.048,15.421c4.348,5.725,10.456,9.514,17.466,10.121
								c3.239,0.28,6.403-0.144,9.391-1.161L244.831,210.447z"/>
							<path style="fill:#FC9AA1;" d="M265.163,201.009c2.866,16.72-6.477,32.276-20.868,34.743l0,0
								c-14.387,2.466-28.375-9.092-31.24-25.812l-2.256-13.159c-2.866-16.72,11.142-21.737,25.529-24.203l0,0
								c14.39-2.466,23.713-1.449,26.578,15.272L265.163,201.009z"/>
							<ellipse style="fill:#FC9AA1;" cx="237.193" cy="252.004" rx="17.847" ry="8.198"/>
							<g>
								<path style="fill:#E57F8B;" d="M248.108,210.731c0.283,1.577-0.766,3.085-2.343,3.367c-1.577,0.283-3.085-0.766-3.367-2.344
									c-0.283-1.577,0.766-3.085,2.343-3.367S247.826,209.154,248.108,210.731z"/>
								<path style="fill:#E57F8B;" d="M248.258,212.546l-5.369,0.963c-0.821,0.147-1.607-0.399-1.754-1.221l0,0
									c-0.147-0.821,0.399-1.607,1.221-1.754l5.369-0.963c0.821-0.147,1.607,0.399,1.754,1.221l0,0
									C249.625,211.613,249.079,212.399,248.258,212.546z"/>
							</g>
							<path style="fill:none;stroke:#081C3D;stroke-width:1.1783;stroke-linecap:round;stroke-miterlimit:10;" d="M225.207,199.45
								c1.542-0.216,3.037-0.236,4.42-0.089c1.383,0.148,2.654,0.464,3.748,0.921"/>
							<path style="fill:none;stroke:#081C3D;stroke-width:1.1783;stroke-linecap:round;stroke-miterlimit:10;" d="M258.913,195.147
								c-1.547,0.178-2.999,0.534-4.3,1.025c-1.301,0.49-2.452,1.115-3.396,1.833"/>
							<g>
								<path style="fill:none;stroke:#E57F8B;stroke-width:3.9231;stroke-linecap:round;stroke-miterlimit:10;" d="
									M236.286,220.075c2.287,1.799,6.313,2.405,8.842,1.715"/>
							</g>
							<path style="fill:#081C3D;" d="M260.205,169.368c1.248,8.846-9.91,17.734-24.919,19.851l0,0
								c-15.006,2.117-28.184-3.339-29.432-12.185l-0.982-6.962c-2.82-9.366,5.954-19.042,24.913-19.851l0,0
								c14.749-4.877,28.119,2.588,29.438,12.185L260.205,169.368z"/>
							<path style="fill:#081C3D;" d="M231.003,211.319L231.003,211.319c-1.292,0.212-2.511-0.663-2.723-1.954l-0.451-2.742
								c-0.212-1.292,0.663-2.511,1.954-2.723l0,0c1.292-0.212,2.511,0.663,2.723,1.954l0.451,2.742
								C233.17,209.888,232.295,211.107,231.003,211.319z"/>
							<path style="fill:#081C3D;" d="M257.051,207.535L257.051,207.535c-1.292,0.212-2.511-0.663-2.723-1.954l-0.451-2.742
								c-0.212-1.292,0.663-2.511,1.954-2.723l0,0c1.292-0.212,2.511,0.663,2.723,1.954l0.451,2.742
								C259.218,206.104,258.343,207.323,257.051,207.535z"/>
						</g>
					</g>
					<g>
						<g>
							<path style="fill:#E57F8B;" d="M342.86,212.421l-25.201,42.441c-3.678,6.187-1.644,14.183,4.543,17.86h0
								c6.186,3.677,14.183,1.643,17.86-4.543l25.201-42.441c3.677-6.186,1.643-14.183-4.543-17.86v0
								C354.534,204.201,346.537,206.235,342.86,212.421z"/>
							<g>
								<path style="fill:#E57F8B;" d="M355.576,200.156c-8.142,1.304-13.686,8.961-12.382,17.104
									c1.304,8.142,8.961,13.686,17.103,12.382c8.142-1.304,13.686-8.961,12.382-17.104
									C371.375,204.395,363.718,198.852,355.576,200.156z"/>
								<path style="fill:#E57F8B;" d="M363.152,221.085L363.152,221.085c-0.018,2.111,1.679,3.836,3.789,3.854l10.313-0.21
									c2.111,0.018,3.836-1.679,3.854-3.789l0,0c0.018-2.111-1.678-3.836-3.789-3.854l-10.313,0.21
									C364.895,217.277,363.17,218.974,363.152,221.085z"/>
								<path style="fill:#E57F8B;" d="M354.19,211.222L354.19,211.222c2.018,0.619,4.156-0.515,4.775-2.533l2.74-9.945
									c0.619-2.018-0.515-4.156-2.533-4.775l0,0c-2.018-0.619-4.156,0.515-4.775,2.533l-2.74,9.945
									C351.038,208.465,352.172,210.603,354.19,211.222z"/>
								<path style="fill:#E57F8B;" d="M361.782,211.525L361.782,211.525c2.018,0.619,4.156-0.515,4.775-2.533l2.74-9.945
									c0.619-2.018-0.515-4.156-2.533-4.775l0,0c-2.018-0.619-4.156,0.515-4.775,2.533l-2.74,9.945
									C358.63,208.768,359.764,210.906,361.782,211.525z"/>
								<path style="fill:#E57F8B;" d="M365.043,213.553L365.043,213.553c1.672,1.289,4.072,0.978,5.361-0.693l6.059-8.348
									c1.289-1.672,0.978-4.072-0.694-5.361l0,0c-1.672-1.289-4.072-0.978-5.36,0.693l-6.059,8.348
									C363.061,209.864,363.371,212.264,365.043,213.553z"/>
							</g>
							<g>
								<path style="fill:#081C3D;" d="M334.758,231.711l18.535,11.018c1.086,0.646,2.491,0.289,3.136-0.798l3.311-5.57
									c0.646-1.086,0.289-2.49-0.798-3.136l-18.535-11.018c-1.829-1.087-4.193-0.486-5.28,1.343l-1.713,2.881
									C332.328,228.26,332.93,230.624,334.758,231.711z"/>
								<g>
									<path style="fill:#C4E1F5;" d="M331.224,230.699c1.058,4.351,5.443,7.02,9.794,5.962c4.351-1.058,7.021-5.443,5.962-9.794
										s-5.443-7.021-9.794-5.962C332.836,221.963,330.166,226.348,331.224,230.699z"/>
									<path style="fill:#1C3763;" d="M340.182,233.223c2.448-0.595,3.956-3.072,3.361-5.52c-0.595-2.449-3.072-3.956-5.52-3.361
										c-2.448,0.595-3.956,3.072-3.361,5.52C335.257,232.311,337.734,233.819,340.182,233.223z"/>
									<path style="fill:none;stroke:#1C3763;stroke-width:0.8845;stroke-miterlimit:10;" d="M331.224,230.699
										c1.058,4.351,5.443,7.02,9.794,5.962c4.351-1.058,7.021-5.443,5.962-9.794s-5.443-7.021-9.794-5.962
										C332.836,221.963,330.166,226.348,331.224,230.699z"/>
									<g>
										<path style="fill:#EAF4FE;" d="M339.346,229.786c0.553-0.134,0.893-0.694,0.759-1.246
											c-0.134-0.553-0.694-0.893-1.246-0.759c-0.553,0.134-0.893,0.694-0.759,1.247
											C338.234,229.58,338.793,229.92,339.346,229.786z"/>
										<path style="fill:#EAF4FE;" d="M339.137,228.926L339.137,228.926c0.356-0.087,0.574-0.445,0.488-0.801l-1.176-4.834
											c-0.086-0.356-0.445-0.574-0.801-0.488l0,0c-0.356,0.087-0.574,0.445-0.488,0.801l1.175,4.834
											C338.422,228.794,338.781,229.013,339.137,228.926z"/>
										<path style="fill:#EAF4FE;" d="M339.254,228.841L339.254,228.841c-0.313-0.191-0.721-0.091-0.911,0.222l-1.312,2.196
											c-0.19,0.313-0.091,0.721,0.222,0.912l0,0c0.313,0.191,0.721,0.091,0.912-0.222l1.312-2.196
											C339.666,229.44,339.567,229.032,339.254,228.841z"/>
									</g>
								</g>
							</g>
							<path style="fill:#E57F8B;" d="M340.742,260.135c-0.941-7.135-7.488-12.156-14.624-11.215l-42.051,5.547
								c-2.042,0.269-3.902,1.01-5.508,2.08c2.433,0.437,4.759,1.56,6.71,3.169c1.957,1.766,3.82,3.534,5.707,5.329
								c3.766,3.573,7.46,7.219,11.137,10.88c0.714,0.72,1.423,1.446,2.135,2.168l25.278-3.335
								C336.662,273.818,341.683,267.27,340.742,260.135z"/>
							<path style="fill:#C4E1F5;" d="M326.182,274.281l-3.267-24.762c-0.184-1.395-1.464-2.377-2.859-2.193l-45.995,6.068
								c-1.892,0.25-3.646,0.854-5.227,1.717c0.287,0.332,0.579,0.66,0.854,1.001c0.143,0.157,0.277,0.322,0.417,0.481
								c2.345-0.616,4.805-0.656,7.165-0.12c2.579,0.378,5.056,1.546,7.115,3.244c1.957,1.766,3.82,3.534,5.707,5.329
								c3.766,3.573,7.46,7.219,11.137,10.88c1.23,1.24,2.453,2.487,3.678,3.733l19.083-2.517
								C325.384,276.957,326.366,275.677,326.182,274.281z"/>
						</g>
						<g>
							<path style="fill:#E57F8B;" d="M178.328,276.248c0.308-0.31,0.613-0.622,0.921-0.932c3.778-3.753,7.571-7.493,11.437-11.159
								l2.902-2.746c0.97-0.887,1.927-1.871,3.072-2.651c2.268-1.535,4.92-2.473,7.593-2.578c0.423-0.048,0.848-0.074,1.273-0.088
								l-37.595-11.125c-7.161-2.119-14.683,1.968-16.803,9.129c-2.119,7.161,1.968,14.683,9.129,16.802L178.328,276.248z"/>
							<g>
								<path style="fill:#E57F8B;" d="M207.906,243.057l-35.847,25.533c-6.082,4.332-14.525,2.914-18.858-3.169l0,0
									c-4.332-6.083-2.914-14.525,3.169-18.858l35.847-25.533c6.082-4.332,14.525-2.914,18.858,3.169h0
									C215.407,230.281,213.988,238.724,207.906,243.057z"/>
								<g>
									<path style="fill:#FC9AA1;" d="M153.201,265.421c-0.846-1.068-1.552-2.26-2.058-3.553c-0.476-1.3-0.774-2.673-0.875-4.074
										c-0.131-2.8,0.576-5.684,2.131-8.089c0.743-1.223,1.718-2.303,2.822-3.218c0.561-0.474,1.109-0.874,1.655-1.271
										l1.643-1.208l6.614-4.771c8.871-6.288,17.821-12.467,27.084-18.206c-8.451,6.879-17.216,13.317-26.058,19.646l-6.671,4.692
										l-1.679,1.158c-0.566,0.385-1.126,0.771-1.615,1.163c-1.003,0.793-1.924,1.712-2.65,2.779
										C150.532,254.67,150.242,260.789,153.201,265.421z"/>
								</g>
								<g>
									<g>
										<path style="fill:#FFFFFF;" d="M222.995,228.696L222.995,228.696c0.495-0.19,0.742-0.745,0.552-1.24l-9.011-23.462
											c-0.19-0.495-0.745-0.742-1.24-0.552l0,0L222.995,228.696z"/>
									</g>
									<path style="fill:#EAF4FE;" d="M209.72,203.905L209.72,203.905c-0.714,0.274-1.515-0.082-1.789-0.796l-0.149-0.389
										c-0.274-0.714,0.082-1.515,0.796-1.789l0,0c0.714-0.274,1.515,0.082,1.789,0.796l0.149,0.389
										C210.79,202.83,210.433,203.631,209.72,203.905z"/>
									<path style="fill:#BFCFDD;" d="M220.866,232.926L220.866,232.926c-1.862,0.715-3.95-0.214-4.665-2.076l-9.395-24.461
										c-0.715-1.862,0.215-3.95,2.076-4.665l0,0c1.861-0.715,3.95,0.215,4.665,2.076l9.395,24.461
										C223.657,230.123,222.727,232.211,220.866,232.926z"/>
									<path style="fill:#EAF4FE;" d="M212.766,211.836L212.766,211.836c-0.714,0.274-1.515-0.082-1.789-0.796l-1.749-4.553
										c-0.274-0.714,0.082-1.515,0.796-1.789l0,0c0.714-0.274,1.515,0.082,1.789,0.796l1.749,4.553
										C213.836,210.761,213.479,211.562,212.766,211.836z"/>
									<path style="fill:#EAF4FE;" d="M214.403,216.098L214.403,216.098c-0.714,0.274-1.515-0.082-1.789-0.796l-0.149-0.389
										c-0.274-0.714,0.082-1.515,0.796-1.789l0,0c0.714-0.274,1.515,0.082,1.789,0.796l0.149,0.389
										C215.473,215.023,215.117,215.824,214.403,216.098z"/>
								</g>
								<g>
									<path style="fill:#E57F8B;" d="M215.125,220.856c2.541,9.578-0.11,18.591-5.92,20.132
										c-5.81,1.541-12.579-4.974-15.12-14.551c-2.541-9.578,0.11-18.591,5.92-20.132
										C205.815,204.763,212.585,211.278,215.125,220.856z"/>
									<path style="fill:#E57F8B;" d="M208.571,200.162l-2.199,14.251c-0.373,2.418-2.636,4.076-5.054,3.703l0,0
										c-2.418-0.373-4.076-2.636-3.703-5.054l2.199-14.251c0.373-2.418,2.636-4.076,5.054-3.703l0,0
										C207.286,195.481,208.944,197.744,208.571,200.162z"/>
									<path style="fill:#E57F8B;" d="M204.045,194.808l4.215-0.195c2.443-0.136,4.534,1.734,4.67,4.176l0,0
										c0.136,2.443-1.733,4.534-4.176,4.67l-4.215,0.195c-2.443,0.136-4.534-1.733-4.67-4.176l0,0
										C199.732,197.035,201.602,194.944,204.045,194.808z"/>
									<path style="fill:#E57F8B;" d="M218.97,213.704l-12.321,7.491c-2.091,1.271-4.816,0.607-6.087-1.484l0,0
										c-1.271-2.091-0.607-4.816,1.484-6.087l12.321-7.491c2.091-1.271,4.816-0.607,6.087,1.484l0,0
										C221.725,209.708,221.06,212.433,218.97,213.704z"/>
									<path style="fill:#E57F8B;" d="M223.71,224.695l-14.079,3.117c-2.389,0.529-4.754-0.979-5.283-3.368l0,0
										c-0.529-2.389,0.979-4.754,3.368-5.283l14.078-3.117c2.389-0.529,4.754,0.979,5.283,3.368l0,0
										C227.607,221.801,226.099,224.166,223.71,224.695z"/>
								</g>
							</g>
							<path style="fill:#C4E1F5;" d="M167.958,274.759l9.163,2.712c0.71-0.717,1.416-1.439,2.128-2.155
								c3.778-3.753,7.571-7.493,11.437-11.159l2.902-2.746c0.97-0.887,1.927-1.871,3.072-2.651c2.268-1.535,4.92-2.473,7.593-2.578
								c1.487-0.17,2.993-0.124,4.468,0.149c0.171-0.191,0.347-0.378,0.522-0.566c0,0,0,0,0,0c0.034-0.041,0.071-0.079,0.105-0.12
								l-39.534-11.699l-6.557,22.157C162.164,269.792,164.269,273.667,167.958,274.759z"/>
						</g>
					</g>
				</g>
				<g>
					<g>
						<path style="fill:#102752;" d="M269.721,319.299h-59.479c-6.145,0-11.127,4.982-11.127,11.127v5.408
							c0,22.57,18.297,40.867,40.867,40.867h0c22.57,0,40.867-18.297,40.867-40.867v-5.408
							C280.848,324.281,275.866,319.299,269.721,319.299z"/>
						<path style="fill:#102752;" d="M205.623,375.387l-74.547-17.031c-9.766-2.231-15.875-11.957-13.643-21.723l0,0
							c2.231-9.766,11.957-15.875,21.723-13.643l74.547,17.031c9.766,2.231,15.875,11.957,13.643,21.723v0
							C225.115,371.51,215.389,377.618,205.623,375.387z"/>
						<path style="fill:#102752;" d="M270.096,375.387l74.547-17.031c9.766-2.231,15.875-11.957,13.643-21.723l0,0
							c-2.231-9.766-11.957-15.875-21.723-13.643l-74.547,17.031c-9.766,2.231-15.875,11.957-13.644,21.723v0
							C250.604,371.51,260.33,377.618,270.096,375.387z"/>
					</g>
					<g>
						<path style="fill:#BFCFDD;" d="M266.869,349.797h-52.095c-8.384,0-15.489-6.172-16.662-14.473l-4.915-26.687
							c-1.431-10.13,6.432-19.182,16.662-19.182h61.924c10.23,0,18.094,9.053,16.662,19.182l-4.915,26.687
							C282.358,343.625,275.253,349.797,266.869,349.797z"/>
						<path style="fill:#EAF4FE;" d="M266.869,349.797h-52.095c-8.384,0-15.489-5.714-16.662-13.401l-4.915-24.709
							c-1.431-9.379,6.432-17.761,16.662-17.761h61.924c10.23,0,18.094,8.382,16.662,17.761l-4.915,24.709
							C282.358,344.082,275.253,349.797,266.869,349.797z"/>
						<path style="fill:#BFCFDD;" d="M207.87,360.682l65.867,0.185c3.552,0.01,6.44-2.862,6.45-6.414v0
							c0.01-3.552-2.862-6.44-6.414-6.45l-65.867-0.185c-3.552-0.01-6.44,2.862-6.45,6.414l0,0
							C201.446,357.784,204.318,360.672,207.87,360.682z"/>
						<path style="fill:#ABBFCE;" d="M261.864,356.581c-5.46-3.593-11.5-4.748-16.789-2.597c-0.204,0.083-0.392,0.192-0.572,0.312
							c-0.304,0.076-0.605,0.166-0.9,0.286c-0.292,0.119-0.546,0.301-0.769,0.532c-0.392,0.02-0.771,0.094-1.131,0.241
							c-1.056,0.429-1.257,2.429-0.841,5.419l32.877,0.092c3.552,0.01,6.44-2.862,6.45-6.414c0.008-2.878-1.876-5.319-4.48-6.147
							l-10.592,5.935C263.921,354.91,262.842,355.703,261.864,356.581z"/>
						<path style="fill:#ABBFCE;" d="M234.017,355.355c-0.361-0.147-0.74-0.221-1.132-0.241c-0.223-0.231-0.477-0.413-0.769-0.532
							c-0.295-0.12-0.596-0.21-0.9-0.286c-0.18-0.12-0.368-0.229-0.572-0.312c-5.289-2.151-11.329-0.996-16.789,2.597
							c-0.978-0.878-2.057-1.671-3.251-2.34l-7.546-4.228c-0.99,1.128-1.597,2.601-1.601,4.22v0c-0.01,3.552,2.862,6.44,6.414,6.45
							l26.99,0.076C235.273,357.777,235.07,355.784,234.017,355.355z"/>
						<path style="fill:#8EAABC;" d="M214.187,354.337c-0.003,1.047,0.868,1.898,1.945,1.901c1.077,0.003,1.953-0.843,1.956-1.89
							c0.003-1.047-0.868-1.897-1.945-1.901C215.065,352.444,214.189,353.29,214.187,354.337z"/>
						<path style="fill:#8EAABC;" d="M228.524,355.901h-6.052c-0.861,0-1.559-0.698-1.559-1.559l0,0
							c0-0.861,0.698-1.559,1.559-1.559h6.052c0.861,0,1.559,0.698,1.559,1.559l0,0
							C230.083,355.203,229.385,355.901,228.524,355.901z"/>
						<g>
							<circle style="fill:#FFFFFF;" cx="240.822" cy="326.294" r="7.427"/>
						</g>
					</g>
					<g>
						<g>
							<path style="fill:#1C3763;" d="M282.849,393.731l66.709-37.38c8.739-4.897,11.854-15.952,6.957-24.691l0,0
								c-4.897-8.739-15.952-11.854-24.691-6.957l-66.709,37.38c-8.739,4.897-11.854,15.952-6.957,24.691l0,0
								C263.055,395.513,274.11,398.628,282.849,393.731z"/>
							<g>
								<path style="fill:#2E4972;" d="M331.824,324.703c-3.713,2.319-7.484,4.535-11.225,6.806l-11.319,6.637
									c-7.547,4.423-15.166,8.719-22.784,13.014l-11.469,6.371l-5.754,3.15c-1.895,1.074-3.912,2.041-5.617,3.203
									c-3.473,2.384-5.964,6.149-6.943,10.294c-1.064,4.145-0.501,8.674,1.446,12.596c-2.319-3.727-3.145-8.383-2.33-12.787
									c0.844-4.395,3.338-8.521,6.987-11.248c1.858-1.378,3.777-2.361,5.667-3.469l5.69-3.264l11.421-6.455
									c7.641-4.255,15.283-8.51,22.995-12.638l11.57-6.189C324.048,328.719,327.907,326.659,331.824,324.703z"/>
							</g>
							<g>
								<path style="fill:#102752;" d="M259.462,368.092c-8.877,3.611,4.574,36.681,13.451,33.07
									c8.878-3.611,13.063-13.941,9.349-23.073C278.548,368.957,268.34,364.482,259.462,368.092z"/>
								<path style="fill:#102752;" d="M245.074,361.827c-10.439,4.246,11.47,58.112,21.91,53.866
									c10.44-4.246,13.998-19.747,7.948-34.621C268.881,366.196,255.514,357.58,245.074,361.827z"/>
								<g>
									<path style="fill:#1C3763;" d="M266.984,415.692c2.939-1.451,5.321-3.776,6.89-6.548c1.615-2.748,2.519-5.862,2.925-9.01
										c0.773-6.331-0.389-12.798-2.749-18.706c-1.213-2.951-2.747-5.766-4.597-8.357c-1.83-2.606-4.017-4.959-6.494-6.954
										c-2.488-1.97-5.309-3.568-8.382-4.409c-3.057-0.891-6.386-0.894-9.504,0.118c2.965-1.421,6.448-1.652,9.719-1.026
										c3.284,0.661,6.368,2.164,9.065,4.134c5.43,3.962,9.381,9.645,11.954,15.778c2.436,6.189,3.573,13.016,2.45,19.642
										c-0.556,3.293-1.715,6.522-3.606,9.287C272.754,412.374,270.098,414.639,266.984,415.692z"/>
								</g>
								<path style="fill:#1C3763;" d="M243.602,362.425c-8.579,3.49,13.33,57.355,21.91,53.866
									c7.159-2.912,7.069-16.928,1.019-31.803C260.48,369.613,250.761,359.514,243.602,362.425z"/>
								<path style="fill:#081C3D;" d="M241.702,363.198c-6.046,2.459,15.864,56.325,21.91,53.866
									c5.045-2.052,3.533-15.49-2.517-30.365C255.044,371.824,246.747,361.146,241.702,363.198z"/>
							</g>
						</g>
						<g>
							<path style="fill:#1C3763;" d="M192.87,393.731l-66.709-37.38c-8.739-4.897-11.854-15.952-6.957-24.691h0
								c4.897-8.739,15.951-11.854,24.691-6.957l66.709,37.38c8.739,4.897,11.854,15.952,6.957,24.691l0,0
								C212.664,395.513,201.609,398.628,192.87,393.731z"/>
							<g>
								<path style="fill:#2E4972;" d="M143.895,324.703c3.917,1.956,7.775,4.016,11.665,6.021l11.57,6.189
									c7.712,4.128,15.354,8.383,22.995,12.638l11.421,6.455l5.69,3.264c1.89,1.108,3.809,2.092,5.667,3.469
									c3.649,2.727,6.143,6.853,6.987,11.248c0.814,4.405-0.011,9.061-2.33,12.787c1.947-3.922,2.51-8.451,1.445-12.596
									c-0.98-4.145-3.471-7.91-6.943-10.294c-1.705-1.162-3.722-2.129-5.617-3.203l-5.754-3.15l-11.469-6.371
									c-7.618-4.296-15.237-8.592-22.784-13.014l-11.319-6.637C151.379,329.238,147.608,327.022,143.895,324.703z"/>
							</g>
							<g>
								<path style="fill:#102752;" d="M216.257,368.092c8.878,3.611-4.574,36.681-13.451,33.07s-13.063-13.941-9.349-23.073
									C197.171,368.957,207.379,364.482,216.257,368.092z"/>
								<path style="fill:#102752;" d="M230.645,361.827c10.439,4.246-11.47,58.112-21.91,53.866
									c-10.439-4.246-13.998-19.747-7.948-34.621C206.837,366.196,220.205,357.58,230.645,361.827z"/>
								<g>
									<path style="fill:#1C3763;" d="M208.735,415.692c-3.114-1.053-5.769-3.318-7.673-6.051
										c-1.89-2.765-3.049-5.994-3.606-9.287c-1.123-6.627,0.014-13.453,2.45-19.642c2.574-6.133,6.525-11.816,11.954-15.778
										c2.698-1.97,5.781-3.473,9.065-4.134c3.271-0.627,6.754-0.395,9.719,1.026c-3.118-1.011-6.446-1.009-9.503-0.118
										c-3.074,0.841-5.895,2.439-8.383,4.409c-2.477,1.995-4.664,4.348-6.494,6.954c-1.849,2.592-3.384,5.406-4.597,8.357
										c-2.36,5.908-3.522,12.374-2.749,18.706c0.406,3.148,1.311,6.261,2.925,9.01
										C203.413,411.916,205.796,414.241,208.735,415.692z"/>
								</g>
								<path style="fill:#1C3763;" d="M232.117,362.425c8.579,3.49-13.33,57.355-21.91,53.866
									c-7.159-2.912-7.069-16.928-1.019-31.803S224.958,359.514,232.117,362.425z"/>
								<path style="fill:#081C3D;" d="M234.017,363.198c6.046,2.459-15.864,56.325-21.91,53.866
									c-5.045-2.052-3.533-15.49,2.517-30.365C220.674,371.824,228.972,361.146,234.017,363.198z"/>
							</g>
						</g>
					</g>
				</g>
			</g>
		</g>
	</g>
</g>
</svg>
